<!-- Generated by IcoMoon.io -->
<svg version="1.1" xmlns="http://www.w3.org/2000/svg" width="512" height="512" viewBox="0 0 512 512">
<title></title>
<g id="icomoon-ignore">
</g>
<path d="M221.776 334.43c-1.053 2.043-3.813 6.517-9.242 6.517-3.858 0-6.661-2.108-8.404-4.168-1.688-1.997-2.885-4.486-3.791-6.916-1.833-4.911-3.169-11.503-4.226-18.813-2.131-14.733-3.369-34.228-4.507-53.34-0.087-1.459-0.173-2.913-0.26-4.365-1.053-17.764-2.069-34.916-3.66-47.971-0.387-3.181-0.8-6.036-1.24-8.538-0.151 1.111-0.294 2.296-0.43 3.558-1.185 11.106-1.51 26.053-1.839 41.445l-0.006 0.25c-0.321 15.096-0.653 30.61-1.91 42.364-0.624 5.849-1.525 11.277-2.972 15.402-0.717 2.042-1.735 4.265-3.303 6.091-1.674 1.95-4.31 3.779-7.851 3.779-5.91 0-9.292-4.413-10.97-7.598-1.786-3.394-2.97-7.744-3.844-12.202-1.768-9.028-2.689-20.851-3.498-32.134-0.074-1.020-0.145-2.037-0.217-3.048-0.695-9.77-1.35-18.994-2.398-26.246-1.009 6.963-1.653 15.744-2.334 25.050-0.072 0.981-0.145 1.966-0.217 2.956-0.809 10.955-1.73 22.464-3.505 31.262-0.877 4.344-2.067 8.608-3.875 11.943-1.724 3.181-5.123 7.414-10.93 7.414-4.704 0-8.146-2.516-10.333-5.53-2.018-2.779-3.209-6.238-4.002-9.491-1.6-6.558-2.192-15.001-2.671-22.668-0.042-0.683-0.085-1.361-0.127-2.032-0.448-7.229-0.85-13.716-1.767-18.587-0.136-0.723-0.275-1.361-0.415-1.918-0.513 1.505-0.959 3.462-1.556 6.085-0.047 0.211-0.096 0.425-0.145 0.643-0.777 3.402-1.874 8.13-4.26 11.954-1.273 2.041-3.033 4.045-5.497 5.516-2.499 1.492-5.34 2.205-8.399 2.205h-69.299c-3.812 0-6.902-3.089-6.902-6.901s3.089-6.901 6.902-6.901h69.299c0.859 0 1.201-0.18 1.323-0.255 0.156-0.095 0.459-0.325 0.859-0.967 0.961-1.542 1.658-3.968 2.515-7.719 0.074-0.323 0.15-0.662 0.228-1.014 0.689-3.077 1.597-7.132 3.23-10.383 0.978-1.95 2.422-4.075 4.65-5.71 2.334-1.712 5.092-2.567 8.088-2.567 5.014 0 8.175 3.227 9.855 6.11 1.597 2.742 2.494 6.118 3.088 9.27 1.086 5.773 1.542 13.158 1.97 20.115 0.046 0.736 0.091 1.468 0.135 2.192 0.499 7.945 1.049 15.11 2.306 20.259 0.208 0.853 0.421 1.579 0.626 2.192 0.531-1.498 1.066-3.478 1.572-5.985 1.57-7.787 2.444-18.389 3.27-29.548 0.075-1.020 0.151-2.043 0.225-3.070 0.726-9.936 1.466-20.077 2.742-27.934 0.696-4.282 1.631-8.448 3.063-11.697 1.179-2.675 4.138-7.918 10.32-7.918 6.286 0 9.215 5.448 10.349 8.099 1.416 3.304 2.345 7.556 3.038 11.955 1.273 8.071 2.012 18.49 2.738 28.724 0.075 1.055 0.15 2.108 0.225 3.156 0.822 11.481 1.699 22.421 3.275 30.466 0.212 1.080 0.429 2.070 0.65 2.969 0.376-2.043 0.718-4.464 1.016-7.252 1.185-11.106 1.51-26.053 1.839-41.445l0.006-0.25c0.321-15.096 0.653-30.61 1.91-42.364 0.624-5.849 1.525-11.278 2.972-15.403 0.717-2.041 1.735-4.265 3.303-6.091 1.674-1.95 4.31-3.779 7.851-3.779 4.166 0 6.867 2.631 8.28 4.598 1.436 1.999 2.428 4.456 3.175 6.827 1.52 4.829 2.63 11.346 3.517 18.625 1.647 13.507 2.687 31.091 3.73 48.694 0.089 1.499 0.178 2.996 0.267 4.493 1.147 19.26 2.357 38.139 4.388 52.185 0.624 4.306 1.3 7.99 2.029 11 1.218-6.185 2.226-14.765 3.071-25.203 1.861-22.962 2.835-53.661 3.816-84.617l0.005-0.151c0.976-30.78 1.96-61.805 3.85-85.144 0.943-11.645 2.135-21.69 3.743-28.934 0.79-3.561 1.776-6.904 3.118-9.508 1.053-2.043 3.813-6.517 9.242-6.517 3.544 0 5.865 2.117 7.038 3.611 1.174 1.495 1.944 3.251 2.487 4.787 1.113 3.147 1.939 7.334 2.604 12.077 1.346 9.611 2.233 23.114 2.846 39.003 1.075 27.844 1.334 63.779 1.601 100.581 0.037 5.284 0.076 10.587 0.118 15.887 0.327 42.311 0.817 84.404 2.681 115.9 0.935 15.793 2.2 28.63 3.896 37.411 0.202 1.048 0.408 2.015 0.611 2.901 0.053-0.2 0.107-0.406 0.161-0.616 1.78-6.983 3.224-17.305 4.379-30.151 2.301-25.589 3.361-59.837 4.177-94.338 0.164-6.932 0.319-13.873 0.471-20.752 0.606-27.237 1.19-53.494 2.269-74.236 0.675-12.961 1.555-24.036 2.803-31.953 0.613-3.897 1.377-7.433 2.409-10.139 0.505-1.323 1.241-2.904 2.38-4.268 1.158-1.387 3.38-3.269 6.685-3.269 4.775 0 7.461 3.528 8.601 5.44 1.306 2.19 2.229 4.915 2.944 7.659 1.459 5.596 2.538 13.256 3.402 21.986 1.733 17.509 2.719 40.747 3.693 63.709l0.008 0.172c0.981 23.161 1.955 46.027 3.644 63.105 0.4 4.041 0.833 7.681 1.302 10.872 0.12-1.003 0.235-2.054 0.344-3.154 1.141-11.447 1.573-26.507 2.021-42.185 0.036-1.273 0.074-2.55 0.11-3.83 0.486-16.824 1.063-34.086 2.703-47.161 0.812-6.475 1.942-12.438 3.676-16.943 0.861-2.241 2.048-4.595 3.793-6.491 1.856-2.016 4.603-3.746 8.152-3.746 5.878 0 9.536 3.974 11.536 7.573 1.981 3.563 3.192 8.115 4.029 12.73 1.692 9.338 2.272 21.549 2.757 33.136 0.036 0.866 0.073 1.73 0.107 2.589 0.452 10.928 0.877 21.173 1.99 28.909 0.322 2.233 0.679 4.082 1.056 5.569 0.253-0.75 0.512-1.622 0.767-2.626 1.515-5.964 2.377-14.181 3.204-23.084 0.075-0.811 0.151-1.631 0.227-2.455 0.723-7.852 1.476-16.052 2.781-22.435 0.712-3.484 1.704-7.063 3.292-9.924 1.553-2.798 4.689-6.57 10.039-6.57 4.51 0 7.697 2.532 9.629 5.266 1.792 2.536 2.851 5.649 3.558 8.517 1.433 5.797 2.028 13.232 2.51 19.941 0.055 0.762 0.107 1.515 0.161 2.257 0.195 2.775 0.382 5.414 0.597 7.856 0.071-0.486 0.143-0.986 0.216-1.493l0.055-0.384c0.61-4.261 1.336-9.331 2.68-13.345 0.695-2.082 1.75-4.501 3.508-6.498 1.938-2.201 4.788-3.904 8.423-3.904 6.421 0 9.915 4.405 11.636 7.954 1.394 2.875 2.279 6.47 2.96 9.231 0.091 0.365 0.176 0.713 0.26 1.046 0.851 3.391 1.538 5.602 2.397 6.989 0.506 0.817 0.666 0.811 0.925 0.799 0.032-0.002 0.067-0.002 0.102-0.002h70.044c3.812 0 6.901 3.089 6.901 6.901s-3.089 6.901-6.901 6.901h-70.044c-6.202 0-10.315-3.376-12.765-7.334-2.16-3.49-3.269-7.784-4.050-10.895-0.084-0.333-0.164-0.657-0.243-0.969-0.295-1.183-0.553-2.214-0.799-3.118-0.522 2.357-0.949 5.248-1.428 8.589l-0.055 0.384c-0.611 4.26-1.337 9.33-2.68 13.346-0.695 2.082-1.751 4.502-3.509 6.498-1.938 2.2-4.787 3.904-8.423 3.904-4.986 0-7.854-3.473-9.203-5.957-1.344-2.475-2.1-5.481-2.605-8.238-0.909-4.958-1.351-11.284-1.77-17.249-0.053-0.767-0.107-1.53-0.162-2.28-0.426-5.959-0.888-11.382-1.704-15.611-0.011 0.052-0.022 0.106-0.033 0.159-1.142 5.589-1.825 12.994-2.572 21.085-0.071 0.767-0.142 1.537-0.214 2.316-0.805 8.658-1.739 18.001-3.57 25.206-0.906 3.568-2.176 7.235-4.166 10.149-2.081 3.048-5.537 6.029-10.563 6.029-6.163 0-9.42-4.789-10.916-8.041-1.607-3.493-2.563-7.957-3.219-12.51-1.221-8.473-1.673-19.426-2.111-30.093-0.038-0.935-0.077-1.868-0.116-2.797-0.495-11.827-1.058-23.029-2.548-31.251-0.47-2.588-0.99-4.633-1.526-6.186-0.913 2.895-1.718 7.024-2.382 12.319-1.543 12.29-2.109 28.847-2.601 45.842-0.038 1.323-0.077 2.649-0.113 3.976-0.442 15.495-0.887 31.048-2.081 43.012-0.641 6.438-1.543 12.317-2.949 16.733-0.693 2.175-1.664 4.512-3.156 6.432-1.561 2.010-4.237 4.188-8.067 4.188-4.776 0-7.461-3.528-8.601-5.44-1.306-2.188-2.23-4.914-2.944-7.659-1.459-5.596-2.538-13.257-3.403-21.985-1.733-17.509-2.719-40.748-3.693-63.709l-0.007-0.173c-0.982-23.16-1.955-46.026-3.645-63.106-0.151-1.531-0.308-3.006-0.469-4.418-0.471 5.34-0.879 11.492-1.235 18.324-1.069 20.516-1.647 46.49-2.252 73.704-0.154 6.907-0.31 13.895-0.476 20.892-0.817 34.438-1.878 69.132-4.228 95.247-1.169 13.005-2.687 24.229-4.751 32.326-1.019 3.993-2.285 7.705-3.986 10.571-1.543 2.599-4.668 6.476-9.93 6.476-3.012 0-5.349-1.413-6.905-2.934-1.48-1.443-2.518-3.211-3.28-4.836-1.529-3.259-2.675-7.563-3.6-12.356-1.875-9.714-3.181-23.3-4.122-39.212-1.889-31.914-2.379-74.372-2.706-116.608-0.041-5.31-0.079-10.619-0.118-15.903-0.267-36.844-0.525-72.53-1.592-100.138-0.459-11.879-1.063-22.124-1.862-30.253-0.617 4.731-1.168 10.205-1.663 16.317-1.862 22.962-2.835 53.66-3.816 84.616l-0.005 0.151c-0.976 30.78-1.96 61.805-3.85 85.144-0.943 11.644-2.135 21.69-3.743 28.934-0.791 3.561-1.776 6.904-3.118 9.509zM241.994 92.324c0.002 0.008-0.040 0.075-0.125 0.178 0.081-0.135 0.124-0.186 0.125-0.178zM284.899 154.77c0-0.002 0.019 0.022 0.058 0.080-0.039-0.049-0.058-0.078-0.058-0.080zM331.578 205.318c0-0.002 0.014 0.011 0.046 0.044-0.030-0.024-0.046-0.041-0.046-0.044zM355.644 286.346c0 0.002-0.020-0.019-0.060-0.079 0.041 0.046 0.061 0.074 0.060 0.079zM315.146 328.613c0 0.002-0.019-0.021-0.058-0.080 0.038 0.049 0.058 0.079 0.058 0.080zM259.818 419.051c-0.001-0.002 0.024-0.035 0.074-0.084-0.048 0.063-0.074 0.087-0.074 0.084zM209.192 328.624c-0.002-0.008 0.040-0.075 0.124-0.178-0.080 0.135-0.124 0.185-0.124 0.178zM169.932 296.56c0 0.002-0.023-0.017-0.065-0.073 0.044 0.041 0.065 0.068 0.065 0.073zM124.636 293.925c-0.001-0.002 0.019-0.024 0.056-0.061-0.035 0.046-0.056 0.063-0.056 0.061zM150.032 217.476c0.002 0.008-0.036 0.069-0.113 0.161 0.073-0.123 0.113-0.167 0.113-0.161zM144.523 217.613c-0.085-0.101-0.126-0.168-0.124-0.179 0.002-0.008 0.046 0.041 0.124 0.179z"></path>
</svg>
