<!-- Generated by IcoMoon.io -->
<svg version="1.1" xmlns="http://www.w3.org/2000/svg" width="512" height="512" viewBox="0 0 512 512">
<title></title>
<g id="icomoon-ignore">
</g>
<path d="M402.714 180.121l-167.53 167.525-14.472 49.824 49.824-14.473 167.53-167.525-35.351-35.353zM209.627 332.533l182.95-182.946c5.597-5.599 14.674-5.599 20.273 0l55.751 55.751c5.597 5.599 5.597 14.675 0 20.274l-182.951 182.946-82.109 23.851c-7.603 2.208-15.556-2.164-17.766-9.767-0.758-2.613-0.758-5.384 0-7.998l23.85-82.111z"></path>
<path d="M185.208 185.208c21.993 0 39.821-17.828 39.821-39.821s-17.828-39.821-39.821-39.821c-21.993 0-39.821 17.828-39.821 39.821s17.828 39.821 39.821 39.821zM185.208 211.755c-36.654 0-66.368-29.714-66.368-66.368s29.714-66.368 66.368-66.368c36.654 0 66.368 29.713 66.368 66.368s-29.713 66.368-66.368 66.368z"></path>
<path d="M140.964 269.274h77.428v-26.547h-77.428c-56.203 0-101.764 45.561-101.764 101.764v44.245h26.547v-44.245c0-41.541 33.675-75.217 75.217-75.217z"></path>
</svg>
