<!-- Generated by IcoMoon.io -->
<svg version="1.1" xmlns="http://www.w3.org/2000/svg" width="512" height="512" viewBox="0 0 512 512">
<title></title>
<g id="icomoon-ignore">
</g>
<path d="M185.474 114.829l-0.048 0.025c-26.22 13.104-48.273 33.249-63.69 58.179s-23.589 53.661-23.6 82.972v0.027c-0.064 24.485 5.656 48.638 16.695 70.494 1.275 2.524 1.678 5.399 1.147 8.177l-14.523 75.842 75.842-14.524c2.778-0.531 5.654-0.128 8.178 1.147 21.855 11.038 46.008 16.76 70.493 16.695h0.030c29.312-0.010 58.042-8.183 82.972-23.601s45.075-37.47 58.178-63.69l0.026-0.047c11.038-21.856 16.76-46.010 16.695-70.494v-9.713c-2.214-38.576-18.534-74.997-45.863-102.325s-63.748-43.648-102.326-45.862h-9.713c-24.484-0.064-48.638 5.656-70.493 16.696zM173.956 91.966c25.443-12.847 53.56-19.505 82.061-19.433h10.022c0.235 0 0.469 0.007 0.704 0.019 44.998 2.483 87.497 21.475 119.362 53.34s50.858 74.365 53.342 119.362c0.013 0.234 0.019 0.47 0.019 0.704v10.023c0.072 28.504-6.587 56.621-19.435 82.063-15.228 30.459-38.637 56.081-67.601 73.993-28.969 17.916-62.351 27.413-96.411 27.428h0.015l-0.034-12.8 0.005 12.8h0.015c-27.034 0.068-53.719-5.918-78.106-17.495l-90.171 17.267c-4.167 0.798-8.458-0.521-11.459-3.522-3-3-4.319-7.291-3.52-11.458l17.267-90.17c-11.578-24.389-17.564-51.074-17.496-78.108v-0.013l12.8 0.032-12.8-0.005v-0.015c0.016-34.061 9.513-67.444 27.427-96.411 17.913-28.965 43.533-52.373 73.994-67.602zM170.668 277.332c11.782 0 21.334-9.551 21.334-21.334s-9.552-21.334-21.334-21.334c-11.782 0-21.334 9.551-21.334 21.334s9.552 21.334 21.334 21.334zM277.336 255.999c0 11.782-9.551 21.333-21.334 21.333s-21.334-9.551-21.334-21.334c0-11.782 9.551-21.334 21.334-21.334s21.334 9.551 21.334 21.334zM341.336 277.332c11.783 0 21.334-9.551 21.334-21.334s-9.551-21.334-21.334-21.334c-11.783 0-21.334 9.551-21.334 21.334s9.551 21.334 21.334 21.334z"></path>
</svg>
