<!-- Generated by IcoMoon.io -->
<svg version="1.1" xmlns="http://www.w3.org/2000/svg" width="512" height="512" viewBox="0 0 512 512">
<title></title>
<g id="icomoon-ignore">
</g>
<path d="M447.922 276.045l0.078 5.88-31.435 0.010c-5.368 92.615-82.173 166.064-176.133 166.064-97.44 0-176.432-78.992-176.432-176.432 0-93.957 73.445-170.761 166.054-176.132v-31.436c118.394 0 214.74 94.404 217.868 212.045zM230.054 118.069l-0.001 2.326c-78.844 5.334-141.145 70.978-141.145 151.174 0 83.685 67.84 151.524 151.524 151.524 80.196 0 145.841-62.302 151.174-141.145l-161.552-0.001v-163.877zM254.962 257.038l166.511-0.021-0.289-2.335c-11.978-84.823-79.049-151.74-163.598-163.824l-2.624-0.353v166.531z"></path>
</svg>
