<!-- Generated by IcoMoon.io -->
<svg version="1.1" xmlns="http://www.w3.org/2000/svg" width="512" height="512" viewBox="0 0 512 512">
<title></title>
<g id="icomoon-ignore">
</g>
<path d="M105.731 305.675c-33.79 33.943-34.519 89.704-1.632 124.582 32.861 34.853 86.884 35.632 120.675 1.686l208.336-208.252 21.012 22.284-208.336 208.252c-45.714 45.916-118.817 44.88-163.3-2.282-44.459-47.207-43.477-122.666 2.234-168.555l234.745-234.786c33.288-33.452 86.532-32.7 118.916 1.684 32.411 34.332 31.683 89.291-1.604 122.743l-211.073 211.49c-20.861 20.961-54.249 20.494-74.558-1.063-20.309-21.534-19.832-55.97 1.029-76.929l184.667-184.957 20.985 22.258-184.638 184.986c-8.938 8.969-9.138 23.76-0.452 32.96 8.71 9.226 22.995 9.431 31.957 0.469l211.073-211.49c21.364-21.483 21.839-56.745 1.028-78.797-20.787-22.050-54.952-22.543-76.317-1.089l-234.744 234.81z"></path>
</svg>
