<!-- Generated by IcoMoon.io -->
<svg version="1.1" xmlns="http://www.w3.org/2000/svg" width="512" height="512" viewBox="0 0 512 512">
<title></title>
<g id="icomoon-ignore">
</g>
<path d="M294.4 106.056c0-21.207-17.193-38.4-38.4-38.4s-38.4 17.192-38.4 38.4l0.096 2.743c1.142 16.184 12.314 29.601 27.338 34.069l-0.006 27.189h-153.6c-10.099 0-18.286 8.187-18.286 18.286v237.715c0 10.099 8.187 18.286 18.286 18.286h329.144c10.099 0 18.286-8.187 18.286-18.286v-237.714c0-10.099-8.187-18.286-18.286-18.286h-153.6l0.013-27.194c15.854-4.725 27.415-19.416 27.415-36.806zM192.649 325.495l22.29-0.007 0.762 2.931c5.19 17.341 21.268 29.98 40.297 29.98 20.089 0 36.885-14.080 41.060-32.911l22.29 0.007-0.56 3.295c-5.791 29.389-31.703 51.553-62.789 51.553-32.238 0-58.909-23.836-63.351-54.848zM479.086 261.485h-21.945v91.43h21.945v-91.43zM54.857 352.915h-21.943v-91.43h21.943v91.43zM210.286 252.343c10.099 0 18.286 8.186 18.286 18.285 0 10.1-8.187 18.287-18.286 18.287s-18.286-8.187-18.286-18.287c0-10.099 8.187-18.286 18.286-18.286zM283.428 270.628c0-10.099 8.187-18.286 18.286-18.286s18.286 8.187 18.286 18.286c0 10.1-8.187 18.287-18.286 18.287s-18.286-8.187-18.286-18.287z"></path>
</svg>
