<svg width="20" height="20" viewBox="0 0 20 20" fill="none" xmlns="http://www.w3.org/2000/svg">
<path fill-rule="evenodd" clip-rule="evenodd" d="M15.8334 3.33334C16.2936 3.33334 16.6667 3.70643 16.6667 4.16667V12.5C16.6667 12.9602 16.2936 13.3333 15.8334 13.3333H13.3334V15.8333C13.3334 16.2936 12.9603 16.6667 12.5 16.6667H4.16671C3.70647 16.6667 3.33337 16.2936 3.33337 15.8333V7.5C3.33337 7.03977 3.70647 6.66667 4.16671 6.66667H6.66671V4.16667C6.66671 3.70643 7.0398 3.33334 7.50004 3.33334H15.8334ZM13.3334 12.5H15.8334V4.16667H7.50004V6.66667H12.5C12.5268 6.66667 12.5532 6.66793 12.5792 6.67038C12.9702 6.70724 13.2826 7.01427 13.3278 7.40282C13.3315 7.4347 13.3334 7.46713 13.3334 7.5L13.3334 12.5ZM6.66671 7.5H4.16671V15.8333H12.5L12.5 13.3333V7.5H6.66671Z" fill="#6B7682"/>
<mask id="mask0" mask-type="alpha" maskUnits="userSpaceOnUse" x="3" y="3" width="14" height="14">
<path fill-rule="evenodd" clip-rule="evenodd" d="M15.8334 3.33334C16.2936 3.33334 16.6667 3.70643 16.6667 4.16667V12.5C16.6667 12.9602 16.2936 13.3333 15.8334 13.3333H13.3334V15.8333C13.3334 16.2936 12.9603 16.6667 12.5 16.6667H4.16671C3.70647 16.6667 3.33337 16.2936 3.33337 15.8333V7.5C3.33337 7.03977 3.70647 6.66667 4.16671 6.66667H6.66671V4.16667C6.66671 3.70643 7.0398 3.33334 7.50004 3.33334H15.8334ZM13.3334 12.5H15.8334V4.16667H7.50004V6.66667H12.5C12.5268 6.66667 12.5532 6.66793 12.5792 6.67038C12.9702 6.70724 13.2826 7.01427 13.3278 7.40282C13.3315 7.4347 13.3334 7.46713 13.3334 7.5L13.3334 12.5ZM6.66671 7.5H4.16671V15.8333H12.5L12.5 13.3333V7.5H6.66671Z" fill="white"/>
</mask>
<g mask="url(#mask0)">
</g>
</svg>
