<!-- Generated by IcoMoon.io -->
<svg version="1.1" xmlns="http://www.w3.org/2000/svg" width="512" height="512" viewBox="0 0 512 512">
<title></title>
<g id="icomoon-ignore">
</g>
<path d="M173.956 91.968c-30.461 15.23-56.082 38.637-73.994 67.602-17.915 28.969-27.412 62.351-27.427 96.411-0.069 27.034 5.918 53.719 17.496 78.108l-17.267 90.17c-0.798 4.166 0.52 8.459 3.52 11.458 3 3.002 7.291 4.32 11.459 3.522l90.172-17.267c24.387 11.577 51.073 17.563 78.106 17.495 34.061-0.015 67.443-9.512 96.411-27.428 28.964-17.911 52.371-43.533 67.601-73.993 12.847-25.442 19.507-53.56 19.435-82.063v-10.023c0-0.234-0.007-0.47-0.019-0.704-2.483-44.996-21.476-87.496-53.342-119.362s-74.363-50.858-119.362-53.341c-0.235-0.013-0.469-0.019-0.704-0.019h-10.022c-28.501-0.072-56.618 6.587-82.061 19.433zM192.002 256c0 11.783-9.552 21.334-21.334 21.334s-21.334-9.551-21.334-21.334c0-11.782 9.552-21.334 21.334-21.334s21.334 9.551 21.334 21.334zM277.336 256c0 11.783-9.551 21.334-21.334 21.334s-21.334-9.551-21.334-21.334c0-11.782 9.551-21.334 21.334-21.334s21.334 9.551 21.334 21.334zM362.668 256c0 11.783-9.551 21.334-21.334 21.334s-21.334-9.551-21.334-21.334c0-11.782 9.551-21.334 21.334-21.334s21.334 9.551 21.334 21.334z"></path>
</svg>
