<svg width="16" height="16" viewBox="0 0 16 16" fill="none" xmlns="http://www.w3.org/2000/svg">
<circle cx="8.06348" cy="8" r="7" fill="white"/>
<path fill-rule="evenodd" clip-rule="evenodd" d="M15.9898 8C15.9898 12.4183 12.4104 16 7.99492 16C3.57945 16 0 12.4183 0 8C0 3.58172 3.57945 0 7.99492 0C12.4104 0 15.9898 3.58172 15.9898 8ZM7.04553 5L6.99556 3.5H8.99429L8.94432 5L8.69448 9H7.29537L7.04553 5ZM7.99492 12.5C8.54685 12.5 8.99429 12.0523 8.99429 11.5C8.99429 10.9477 8.54685 10.5 7.99492 10.5C7.44299 10.5 6.99556 10.9477 6.99556 11.5C6.99556 12.0523 7.44299 12.5 7.99492 12.5Z" fill="#F94B50"/>
</svg>
