<svg width="20" height="20" viewBox="0 0 20 20" fill="none" xmlns="http://www.w3.org/2000/svg">
<path d="M4.5 17V3H11.5L15.5 6.5V17H4.5Z" fill="white"/>
<path fill-rule="evenodd" clip-rule="evenodd" d="M11.2468 2.5C11.6931 2.5 12.1208 2.67903 12.434 2.99698L15.3539 5.96077C15.6611 6.27258 15.8333 6.69273 15.8333 7.13045V16.8333C15.8333 17.2015 15.5348 17.5 15.1666 17.5H4.83329C4.4651 17.5 4.16663 17.2015 4.16663 16.8333V3.16667C4.16663 2.79848 4.4651 2.5 4.83329 2.5H11.2468ZM5.16599 16.5H14.8327V7.7451H11.3333C11.0848 7.7451 10.8786 7.56377 10.8398 7.3262L10.8333 7.2451V3.5H5.16599V16.5ZM11.8333 3.81275V6.745L14.71 6.74507L14.708 6.74232L14.6409 6.66258L11.8333 3.81275Z" fill="#6B7682"/>
</svg>
