<svg width="20" height="20" viewBox="0 0 20 20" fill="none" xmlns="http://www.w3.org/2000/svg">
<path d="M4.5 17V3H11.5L15.5 6.5V17H4.5Z" fill="#DAE3ED"/>
<path fill-rule="evenodd" clip-rule="evenodd" d="M11.2466 2.5C11.693 2.5 12.1207 2.67903 12.4339 2.99698L15.3538 5.96077C15.661 6.27258 15.8332 6.69273 15.8332 7.13045V16.8333C15.8332 17.2015 15.5347 17.5 15.1665 17.5H4.83317C4.46498 17.5 4.1665 17.2015 4.1665 16.8333V3.16667C4.1665 2.79848 4.46498 2.5 4.83317 2.5H11.2466ZM5.16587 16.5H14.8325V7.7451H11.3332C11.0846 7.7451 10.8785 7.56377 10.8397 7.3262L10.8332 7.2451V3.5H5.16587V16.5ZM11.8332 3.81275V6.745L14.7099 6.74507L14.7079 6.74232L14.6408 6.66258L11.8332 3.81275Z" fill="#6B7682"/>
</svg>
