<!-- Generated by IcoMoon.io -->
<svg version="1.1" xmlns="http://www.w3.org/2000/svg" width="512" height="512" viewBox="0 0 512 512">
<title></title>
<g id="icomoon-ignore">
</g>
<path d="M303.428 64.064c0-27.148-21.234-49.154-47.428-49.154s-47.428 22.007-47.428 49.154l0.119 3.51c1.41 20.718 15.208 37.89 33.765 43.611l-0.007 34.803h-166.75c-12.474 0-22.584 10.48-22.584 23.407v304.289c0 12.928 10.111 23.408 22.584 23.408h360.602c12.471 0 22.582-10.48 22.582-23.408v-304.289c0-12.928-10.112-23.407-22.582-23.407h-166.751l0.016-34.81c19.582-6.048 33.861-24.853 33.861-47.114zM80.216 174.076h351.568v294.926h-351.568v-294.926zM205.287 344.947c5.156 24.106 25.904 42.131 50.713 42.131s45.557-18.026 50.714-42.131l27.531 0.013c-5.485 39.696-38.428 70.208-78.245 70.208s-72.758-30.512-78.244-70.208l27.53-0.013zM508.572 380.058v-117.036h-27.101v117.036h27.101zM30.53 263.022v117.036h-27.102v-117.036h27.102zM222.123 274.726c0-12.927-10.112-23.406-22.584-23.406s-22.584 10.479-22.584 23.406c0 12.928 10.112 23.407 22.584 23.407s22.584-10.479 22.584-23.407zM312.462 251.319c12.471 0 22.584 10.48 22.584 23.407s-10.112 23.407-22.584 23.407c-12.474 0-22.584-10.479-22.584-23.407s10.111-23.406 22.584-23.406zM235.674 64.063c0-11.635 9.101-21.066 20.326-21.066s20.326 9.431 20.326 21.066c0 11.635-9.101 21.066-20.326 21.066s-20.327-9.431-20.327-21.066z"></path>
</svg>
