<!-- Generated by IcoMoon.io -->
<svg version="1.1" xmlns="http://www.w3.org/2000/svg" width="512" height="512" viewBox="0 0 512 512">
<title></title>
<g id="icomoon-ignore">
</g>
<path d="M439.565 350.86h29.769v107.68l-0.159 3.457c-1.578 17.062-14.716 30.642-31.226 32.271l-3.343 0.163-360.555-0.163c-16.511-1.63-29.648-15.209-31.225-32.271l-0.159-3.457v-107.68h29.768v107.68l0.177 1.365c0.462 1.735 1.785 3.102 3.465 3.581l1.319 0.18 358.529-0.18c1.678-0.479 3.002-1.846 3.464-3.581l0.178-1.365v-107.68zM369.506 211.794l21.049 21.755-134.555 139.065-134.555-139.065 21.048-21.755 98.648 101.918-0.025-296.144h29.767l0.025 296.144 98.598-101.918z"></path>
</svg>
