<!-- Generated by IcoMoon.io -->
<svg version="1.1" xmlns="http://www.w3.org/2000/svg" width="512" height="512" viewBox="0 0 512 512">
<title></title>
<g id="icomoon-ignore">
</g>
<path d="M92.406 22.357v319.546c0 2.411 1.632 4.441 3.854 5.051l1.396 0.188 288.517-0.026-84.421-84.27 22.271-22.227 122.496 122.237-122.496 122.236-22.27-22.227 84.473-84.322-288.568 0.026c-19.101 0-34.798-14.543-36.579-33.138l-0.168-3.531v-319.546h31.498z"></path>
<path d="M103.424 11.342v324.784l256.12-0.024-73.387-73.257 37.87-37.788 138.094 137.801-138.094 137.801-37.87-37.788 73.435-73.305-261.935 0.024c-24.814 0-45.229-18.894-47.547-43.105l-0.050-0.526-0.181-4.057 0.013-330.563h53.532zM386.226 378.548l-84.473 84.322 22.271 22.227 122.496-122.236-122.493-122.234-22.276 22.222 84.421 84.271-289.913-0.159c-2.222-0.61-3.854-2.64-3.854-5.051v-319.545h-31.498v319.545l0.168 3.531c1.782 18.595 17.478 33.138 36.579 33.138l288.568-0.026z"></path>
</svg>
