<!-- Generated by IcoMoon.io -->
<svg version="1.1" xmlns="http://www.w3.org/2000/svg" width="512" height="512" viewBox="0 0 512 512">
<title></title>
<g id="icomoon-ignore">
</g>
<path d="M437.332 221.727v-139.061h-139.063v25.284l95.898-0.021-149.571 149.594 17.879 17.878 149.558-149.583 0.013 95.91h25.286z"></path>
<path d="M313.736 143.118c-4.832-1.166-9.878-1.784-15.068-1.784h-160c-35.346 0-64 28.654-64 64v160c0 35.347 28.654 64 64 64h160c35.347 0 64-28.653 64-64v-144.88l-25.6 25.604v119.275c0 21.207-17.192 38.4-38.4 38.4h-160c-21.207 0-38.4-17.193-38.4-38.4v-160c0-21.208 17.192-38.4 38.4-38.4h151.256l23.813-23.816zM342.958 159.135l-18.107 18.112c6.533 6.091 10.935 14.434 11.979 23.792l20.749-20.754c-3.414-8.022-8.423-15.204-14.621-21.15z"></path>
</svg>
