<!-- Generated by IcoMoon.io -->
<svg version="1.1" xmlns="http://www.w3.org/2000/svg" width="512" height="512" viewBox="0 0 512 512">
<title></title>
<g id="icomoon-ignore">
</g>
<path d="M390.308 157.978l-189.994 189.993-85.272 24.768c-7.895 2.293-16.156-2.248-18.449-10.144-0.788-2.712-0.788-5.591 0-8.305l24.769-85.269 189.995-189.994c5.813-5.814 15.238-5.814 21.051 0l57.899 57.897c5.813 5.814 5.813 15.24 0 21.054zM186.86 325.221l177.772-177.77-42.748-42.747-177.772 177.769-17.5 60.248 60.248-17.5z"></path>
<path d="M83.2 424.534c0-7.070 5.731-12.8 12.8-12.8h320c7.070 0 12.8 5.73 12.8 12.8s-5.73 12.8-12.8 12.8h-320c-7.069 0-12.8-5.73-12.8-12.8z"></path>
</svg>
