<!-- Generated by IcoMoon.io -->
<svg version="1.1" xmlns="http://www.w3.org/2000/svg" width="512" height="512" viewBox="0 0 512 512">
<title></title>
<g id="icomoon-ignore">
</g>
<path d="M294.567 24c13.807 0 27.038 5.538 36.726 15.373l90.32 91.68c9.503 9.645 14.829 22.643 14.829 36.181v300.145c0 11.387-9.231 20.62-20.62 20.62h-319.643c-11.388 0-20.622-9.234-20.622-20.62v-422.758c0-11.388 9.234-20.622 20.622-20.622h198.389zM281.779 54.934h-175.29v402.131h299.022v-270.819l-108.268 0.002c-7.688 0-14.065-5.609-15.265-12.959l-0.202-2.509v-115.849zM294.666 390.047h-128.889v-30.933h128.889v30.933zM346.22 281.779h-180.443v30.933h180.443v-30.933zM312.711 155.314l89.015 0.017-2.146-2.566-86.87-88.189v90.739z"></path>
</svg>
