<!-- Generated by IcoMoon.io -->
<svg version="1.1" xmlns="http://www.w3.org/2000/svg" width="512" height="512" viewBox="0 0 512 512">
<title></title>
<g id="icomoon-ignore">
</g>
<path d="M256 512c141.384 0 256-114.616 256-256s-114.616-256-256-256c-141.385 0-256 114.615-256 256s114.615 256 256 256zM140.818 295.926l40.528-0.019 1.387 5.332c9.435 31.53 38.668 54.51 73.267 54.51 36.522 0 67.065-25.603 74.654-59.841l40.527 0.019-1.017 5.988c-10.533 53.432-57.642 93.731-114.165 93.731-58.614 0-107.107-43.339-115.182-99.719zM172.883 162.909c18.362 0 33.246 14.885 33.246 33.246s-14.885 33.246-33.246 33.246c-18.362 0-33.246-14.885-33.246-33.246s14.885-33.246 33.246-33.246zM305.864 196.156c0-18.362 14.885-33.246 33.245-33.246 18.362 0 33.248 14.885 33.248 33.246s-14.885 33.246-33.248 33.246c-18.36 0-33.245-14.885-33.245-33.246z"></path>
</svg>
