<!-- Generated by IcoMoon.io -->
<svg version="1.1" xmlns="http://www.w3.org/2000/svg" width="512" height="512" viewBox="0 0 512 512">
<title></title>
<g id="icomoon-ignore">
</g>
<path d="M256 512c-141.385 0-256-114.616-256-256s114.615-256 256-256c141.384 0 256 114.615 256 256s-114.616 256-256 256zM139.637 196.156c0 18.362 14.885 33.246 33.246 33.246s33.246-14.885 33.246-33.246c0-18.362-14.885-33.246-33.246-33.246s-33.246 14.885-33.246 33.246zM339.109 162.909c-18.36 0-33.245 14.885-33.245 33.246s14.885 33.246 33.245 33.246c18.362 0 33.248-14.885 33.248-33.246s-14.885-33.246-33.248-33.246zM349.091 372.363v-46.546h-186.182v46.546h186.182z"></path>
</svg>
