<!-- Generated by IcoMoon.io -->
<svg version="1.1" xmlns="http://www.w3.org/2000/svg" width="512" height="512" viewBox="0 0 512 512">
<title></title>
<g id="icomoon-ignore">
</g>
<path d="M256 64c106.048 0 192 85.952 192 192s-85.952 192-192 192c-106.048 0-192-85.952-192-192s85.952-192 192-192zM170.982 268.822l-80.896-0.003c5.896 77.416 64.752 140.012 140.424 151.642-34.798-41.421-56.687-94.024-59.529-151.639zM341.017 268.822c-2.841 57.606-24.723 110.204-59.485 151.631 75.662-11.656 134.487-74.238 140.381-151.633l-80.896 0.002zM315.382 268.813l-118.763 0.003c2.866 52.149 23.156 100.832 56.919 139.198l2.462 2.717 2.485-2.718c32.063-36.462 51.97-82.219 56.338-131.406l0.56-7.794zM230.022 91.615c-75.443 11.825-134.063 74.327-139.936 151.587l80.895 0.008c2.835-57.623 24.722-110.236 59.495-151.673l-0.453 0.078zM255.978 101.227l-1.113 1.242c-34.592 38.651-55.352 87.932-58.25 140.738l118.767 0.001c-2.861-52.145-23.144-100.834-56.899-139.22l-2.506-2.76zM285.907 96.905c32.222 40.568 52.396 91.136 55.111 146.295l80.897 0.002c-5.886-77.405-64.714-139.997-140.363-151.653l4.354 5.356z"></path>
</svg>
