<!-- Generated by IcoMoon.io -->
<svg version="1.1" xmlns="http://www.w3.org/2000/svg" width="512" height="512" viewBox="0 0 512 512">
<title></title>
<g id="icomoon-ignore">
</g>
<path d="M431.876 219.216l-164.267-150.711c-6.547-6.007-16.672-6.007-23.219 0l-164.267 150.711c-3.48 3.192-5.457 7.673-5.457 12.366v199.547c0 9.318 7.641 16.872 17.067 16.872h115.2c9.426 0 17.066-7.553 17.066-16.872v-67.485h64v67.485c0 9.318 7.64 16.872 17.067 16.872h115.2c9.426 0 17.067-7.553 17.067-16.872v-199.547c0-4.694-1.978-9.173-5.457-12.366zM100.266 235.255l155.733-142.879 155.733 142.899v187.417h-98.133v-59.050l-0.132-2.587c-1.311-12.76-12.214-22.719-25.468-22.719h-64l-2.618 0.131c-12.909 1.296-22.983 12.072-22.983 25.175v59.050h-98.133v-187.439z"></path>
</svg>
