<svg width="24" height="24" viewBox="0 0 24 24" fill="none" xmlns="http://www.w3.org/2000/svg">
<path d="M8 7C8 6.44772 8.44772 6 9 6H17C17.5523 6 18 6.44772 18 7V17C18 17.5523 17.5523 18 17 18H9C8.44772 18 8 17.5523 8 17V7Z" fill="white"/>
<path fill-rule="evenodd" clip-rule="evenodd" d="M17 7H9V17H17V7ZM9 6C8.44772 6 8 6.44772 8 7V17C8 17.5523 8.44772 18 9 18H17C17.5523 18 18 17.5523 18 17V7C18 6.44772 17.5523 6 17 6H9Z" fill="#6B7682"/>
<path fill-rule="evenodd" clip-rule="evenodd" d="M17 7H9V17H17V7ZM9 6C8.44772 6 8 6.44772 8 7V17C8 17.5523 8.44772 18 9 18H17C17.5523 18 18 17.5523 18 17V7C18 6.44772 17.5523 6 17 6H9Z" fill="#6B7682"/>
<path d="M6 9.5001C6 8.94781 6.44772 8.5001 7 8.5001H12C12.5523 8.5001 13 8.94781 13 9.5001V14.5001C13 15.0524 12.5523 15.5001 12 15.5001H7C6.44772 15.5001 6 15.0524 6 14.5001V9.5001Z" fill="#6B7682"/>
<path d="M8 13.5H8.98057L9.18728 13.0308C9.26148 12.8515 9.33569 12.6775 9.40989 12.5141H9.4364C9.5318 12.6775 9.62191 12.8568 9.71201 13.0308L9.98763 13.5H11L10.0777 12.0448L10.947 10.5H9.97173L9.78622 10.964C9.72261 11.1327 9.64841 11.3067 9.59011 11.4754H9.5636C9.4788 11.3067 9.39399 11.1327 9.31449 10.964L9.06537 10.5H8.053L8.92226 11.9394L8 13.5Z" fill="white"/>
</svg>
