<svg width="17" height="16" viewBox="0 0 17 16" fill="none" xmlns="http://www.w3.org/2000/svg">
<path fill-rule="evenodd" clip-rule="evenodd" d="M16.4886 8C16.4886 12.4183 12.9091 16 8.49364 16C4.07817 16 0.498718 12.4183 0.498718 8C0.498718 3.58172 4.07817 0 8.49364 0C12.9091 0 16.4886 3.58172 16.4886 8ZM7.54424 5L7.49427 3.5H9.493L9.44304 5L9.1932 9H7.79408L7.54424 5ZM8.49364 12.5C9.04557 12.5 9.493 12.0523 9.493 11.5C9.493 10.9477 9.04557 10.5 8.49364 10.5C7.94171 10.5 7.49427 10.9477 7.49427 11.5C7.49427 12.0523 7.94171 12.5 8.49364 12.5Z" fill="#F94B50"/>
</svg>
