<!-- Generated by IcoMoon.io -->
<svg version="1.1" xmlns="http://www.w3.org/2000/svg" width="512" height="512" viewBox="0 0 512 512">
<title></title>
<g id="icomoon-ignore">
</g>
<path d="M448 202.667c0-85.334-54.046-128-106.666-128-35.080 0-63.524 14.222-85.335 42.666-20.965-28.445-49.409-42.666-85.331-42.666-53.883 0-106.666 42.666-106.666 128 0 71.111 63.999 149.333 191.998 234.667 128.002-85.334 192.002-163.556 192.002-234.667zM279.53 128.891c16.406-19.415 36.411-28.624 61.786-28.624 45.060 0 81.067 38.236 81.067 102.4l-0.087 4.028c-2.451 56.641-56.418 123.701-164.679 198.588l-1.634 1.096-9.275-6.432c-105.676-74.511-157.124-141.135-157.124-197.28 0-64.655 35.265-102.4 81.066-102.4 27.828 0 48.607 10.39 64.725 32.255l20.203 27.411 20.719-27.022 3.234-4.019z"></path>
</svg>
