<!-- Generated by IcoMoon.io -->
<svg version="1.1" xmlns="http://www.w3.org/2000/svg" width="512" height="512" viewBox="0 0 512 512">
<title></title>
<g id="icomoon-ignore">
</g>
<path d="M341.176 130.676c-2.217-46.043-39.504-82.677-85.176-82.677l-4.256 0.107c-45.123 2.263-81.025 40.31-81.025 86.914l-0.042 53.062h-52.294c-10.152 0-18.385 9.387-18.385 20.962v233.995c0 11.575 8.233 20.962 18.385 20.962h275.233c10.15 0 18.384-9.387 18.384-20.962v-233.995c0-11.575-8.233-20.962-18.384-20.962h-52.379l0.042-53.062-0.104-4.344zM124.96 438.53v-224.98h262.080v224.98h-262.080zM256 73.469l3.545 0.105c31.664 1.872 56.776 28.668 56.776 61.447l-0.042 53.062h-120.641l0.042-53.062 0.102-3.617c1.835-32.31 28.095-57.934 60.218-57.934zM282 323.599c0 14.361-11.639 26-26 26s-26-11.639-26-26c0-14.361 11.639-26 26-26s26 11.639 26 26z"></path>
</svg>
