<!-- Generated by IcoMoon.io -->
<svg version="1.1" xmlns="http://www.w3.org/2000/svg" width="512" height="512" viewBox="0 0 512 512">
<title></title>
<g id="icomoon-ignore">
</g>
<path d="M85.334 98.807c0-7.442 6.032-13.474 13.474-13.474h122.262c7.441 0 13.472 6.032 13.472 13.474v122.262c0 7.441-6.031 13.474-13.472 13.474h-122.262c-7.442 0-13.474-6.033-13.474-13.474v-122.262zM112.281 112.281v95.313h95.314v-95.314h-95.314zM277.457 98.807c0-7.442 6.033-13.474 13.474-13.474h122.262c7.441 0 13.474 6.032 13.474 13.474v122.262c0 7.441-6.033 13.474-13.474 13.474h-122.262c-7.441 0-13.474-6.033-13.474-13.474v-122.262zM304.406 112.281v95.313h95.313v-95.314h-95.313zM85.334 290.931c0-7.441 6.032-13.474 13.474-13.474h122.262c7.441 0 13.472 6.033 13.472 13.474v122.262c0 7.441-6.031 13.474-13.472 13.474h-122.262c-7.442 0-13.474-6.033-13.474-13.474v-122.262zM112.281 304.406v95.313h95.314v-95.313h-95.314zM277.457 290.931c0-7.441 6.033-13.474 13.474-13.474h122.262c7.441 0 13.474 6.033 13.474 13.474v122.262c0 7.441-6.033 13.474-13.474 13.474h-122.262c-7.441 0-13.474-6.033-13.474-13.474v-122.262zM304.406 304.406v95.313h95.313v-95.313h-95.313z"></path>
</svg>
