<!-- Generated by IcoMoon.io -->
<svg version="1.1" xmlns="http://www.w3.org/2000/svg" width="512" height="512" viewBox="0 0 512 512">
<title></title>
<g id="icomoon-ignore">
</g>
<path d="M255.803 42.667l52.182 52.131-14.908 14.894-24.653-24.644v158.297h158.453l-24.635-24.595 14.908-14.895 52.183 52.13-52.183 52.133-14.908-14.895 24.593-24.599h-158.411v158.298l24.653-24.613 14.908 14.893-52.181 52.132-52.184-52.132 14.91-14.893 24.591 24.57v-158.255h-157.989l24.627 24.599-14.909 14.895-52.183-52.132 52.183-52.13 14.909 14.895-24.669 24.595h158.031v-158.255l-24.591 24.602-14.91-14.894 52.184-52.131z"></path>
</svg>
