<!-- Generated by IcoMoon.io -->
<svg version="1.1" xmlns="http://www.w3.org/2000/svg" width="512" height="512" viewBox="0 0 512 512">
<title></title>
<g id="icomoon-ignore">
</g>
<path d="M70.735 39.205l20.808-13.583c25.028-16.302 53.736-8.040 67.514 14.983l55.655 92.776c3.629 6.049 2.794 13.774-2.044 18.909l-28.367 30.088 2.622 5.542c15.733 33.048 28.013 51.505 51.316 75.555l5.167 5.247c26.692 26.712 45.265 39.549 80.761 56.474l5.567 2.616 30.095-28.332c4.491-4.233 10.965-5.401 16.565-3.199l2.339 1.151 92.827 55.643c23.017 13.82 31.26 42.493 14.935 67.505l-21.264 32.504c-4.396 6.585-7.483 11.004-10.362 14.753l-4.289 5.313c-20.039 23.654-38.924 26.506-82.055 15.762-83.958-20.957-153.683-58.269-220.34-124.974-66.716-66.692-104.047-136.441-124.951-220.313-13.961-55.844-7.247-68.715 47.501-104.421zM181.546 139.368l-49.515-82.57-1.459-2.134c-5.145-6.578-13.302-8.198-21.817-2.651l-20.8 13.578c-39.67 25.873-43.961 28.721-37.070 58.452l2.922 11.951c19.58 78.558 54.182 143.208 116.663 205.667 62.423 62.469 127.052 97.052 205.683 116.681 32.726 8.152 39.666 7.105 50.399-5.569l1.166-1.398c2.717-3.316 5.483-7.125 9.755-13.466l22.635-34.543c6.12-9.377 3.56-18.282-4.753-23.274l-82.608-49.526-29.113 27.471c-3.986 3.756-9.579 5.13-14.76 3.784l-2.547-0.901c-49.010-22.212-71.865-36.57-105.198-69.927-33.379-33.378-47.811-56.349-69.906-105.211-2.631-5.818-1.489-12.649 2.889-17.295l27.437-29.121z"></path>
</svg>
