<!-- Generated by IcoMoon.io -->
<svg version="1.1" xmlns="http://www.w3.org/2000/svg" width="512" height="512" viewBox="0 0 512 512">
<title></title>
<g id="icomoon-ignore">
</g>
<path d="M366.765 74.606l0.168 2.053-0.022 71.736h63.017c9.984 0 18.072 9.232 18.072 20.63v190.131c0 11.784-8.358 21.327-18.68 21.327h-62.409l0.022 54.856c0 6.291-4.642 11.512-10.724 12.493l-194.076 0.166c-6.362 0-11.641-4.591-12.632-10.607l-0.167-2.053-0.022-54.856h-68.778c-9.126 0-16.535-8.459-16.535-18.878v-194.334c0-10.418 7.409-18.876 16.535-18.876h68.778l0.022-71.736c0-6.293 4.642-11.513 10.724-12.493l194.076-0.166c6.361 0 11.639 4.591 12.632 10.606zM174.934 279.187v143.473h166.4v-143.473h-166.4zM422.4 173.714h-332.8v181.452h59.712l0.022-88.617c0-6.293 4.642-11.512 10.724-12.493l2.076-0.167h192c6.361 0 11.639 4.591 12.632 10.607l0.168 2.053-0.022 88.616h55.488v-181.452zM174.934 89.319v59.077h166.4v-59.077h-166.4z"></path>
</svg>
