<!-- Generated by IcoMoon.io -->
<svg version="1.1" xmlns="http://www.w3.org/2000/svg" width="512" height="512" viewBox="0 0 512 512">
<title></title>
<g id="icomoon-ignore">
</g>
<path d="M269.94 298.955c-2.19-20.59 9.788-34.208 21.965-48.051 11.542-13.121 23.262-26.445 23.262-46.1 0-36.409-25.031-54.044-59.164-54.044-24.746 0-44.942 11.662-59.733 28.445l23.040 21.048c9.102-9.387 19.058-15.928 31.573-15.928 14.791 0 24.178 9.102 24.178 23.324 0 11.362-8.372 21.148-17.657 32.002-13.030 15.231-27.858 32.564-23.872 59.305h36.409z"></path>
<path d="M251.72 374.613c15.076 0 26.169-11.947 26.169-27.306s-11.094-27.307-26.169-27.307c-14.791 0-25.884 11.947-25.884 27.307s11.094 27.307 25.884 27.307z"></path>
<path d="M256 0c141.385 0 256 114.615 256 256s-114.615 256-256 256c-141.385 0-256-114.615-256-256s114.615-256 256-256zM256.002 34.135c-122.534 0-221.867 99.333-221.867 221.866s99.333 221.865 221.867 221.865c122.534 0 221.865-99.332 221.865-221.865s-99.332-221.867-221.865-221.867z"></path>
</svg>
