<!-- Generated by IcoMoon.io -->
<svg version="1.1" xmlns="http://www.w3.org/2000/svg" width="512" height="512" viewBox="0 0 512 512">
<title></title>
<g id="icomoon-ignore">
</g>
<path d="M307.563 24.817c-4.23-14.574-17.655-24.818-33.086-24.818h-36.93l-3.28 0.155-3.444 0.503c-13.572 2.688-24.509 13.369-27.133 27.392l-9.816 51.336-5.78 2.153-7.135 2.973-5.841 2.706-43.335-29.433-2.995-1.825c-13.255-7.18-29.875-4.911-40.742 5.956l-26.107 26.107-2.358 2.6-2.208 3.019c-7.428 11.421-7.514 26.471 0.405 38.135l29.463 43.317-2.734 5.888-1.529 3.561-1.45 3.579-2.144 5.754-51.361 9.799-3.191 0.762c-14.591 4.225-24.834 17.636-24.834 33.111v36.904l0.154 3.279 0.502 3.442c2.687 13.562 13.361 24.474 27.384 27.13l51.343 9.771 2.141 5.763 2.976 7.142 2.74 5.926-29.478 43.353-1.827 3.005c-7.183 13.296-4.877 29.849 6.023 40.711l26.086 26.087 2.6 2.355 2.782 2.051c11.457 7.581 26.674 7.719 38.396-0.304l43.27-29.43 5.962 2.781 3.583 1.536 3.604 1.456 5.632 2.058 9.825 51.414 0.754 3.184c4.191 14.56 17.631 24.839 33.093 24.839h36.904l3.277-0.154 3.442-0.505c13.562-2.688 24.495-13.37 27.156-27.376l9.747-51.376 5.817-2.122 7.136-2.983 5.853-2.752 43.337 29.456 2.995 1.83c13.264 7.197 29.891 4.915 40.765-5.959l26.109-26.109 2.349-2.601 2.202-3.021c7.405-11.43 7.491-26.493-0.429-38.125l-29.45-43.325 2.729-5.84 2.973-7.136 2.128-5.805 51.411-9.799 3.187-0.763c14.573-4.228 24.813-17.636 24.813-33.085v-36.93l-0.154-3.276-0.502-3.441c-2.685-13.556-13.351-24.471-27.353-27.132l-51.401-9.822-2.413-6.477-2.512-6.006-2.906-6.274 29.456-43.309 1.824-3c7.168-13.275 4.893-29.874-5.933-40.742l-26.128-26.128-2.605-2.354-3.024-2.203c-11.433-7.413-26.471-7.489-38.125 0.422l-43.37 29.438-5.792-2.704-7.139-2.975-5.825-2.153-9.772-51.38-0.763-3.187zM237.548 30.416h36.93l1.121 0.159c1.431 0.415 2.56 1.602 2.846 3.11l11.406 59.974 0.656 2.379c0.564 1.543 1.375 2.989 2.409 4.279l1.401 1.558 1.923 1.628c1.365 0.974 2.887 1.718 4.505 2.198 10.173 3.017 20.144 7.178 29.786 12.418l2.31 1.017 1.613 0.458 1.658 0.278 2.087 0.068 2.269-0.17c2.24-0.338 4.39-1.175 6.281-2.46l50.567-34.37 1.293-0.581c1.353-0.341 2.832 0.032 3.863 1.063l26.109 26.107 0.803 1.158 0.355 1.334c0.087 0.918-0.135 1.868-0.682 2.673l-34.365 50.514-1.175 1.961c-2.055 4.089-2.307 9.112 0.061 13.738l4.103 8.022 3.248 7.249c2.048 4.915 3.856 9.978 5.373 15.082 0.72 2.427 2.035 4.636 3.824 6.425l1.209 1.084 2.026 1.457 4.976 1.898 59.971 11.431 1.072 0.365c1.328 0.673 2.205 2.046 2.205 3.605v36.93l-0.157 1.127c-0.413 1.433-1.594 2.553-3.111 2.841l-59.981 11.433-2.377 0.656c-1.539 0.563-2.986 1.375-4.275 2.407l-1.558 1.401-1.625 1.921c-0.973 1.363-1.715 2.883-2.199 4.499-3.017 10.154-7.181 20.13-12.429 29.807-0.803 1.485-1.351 3.085-1.629 4.739l-0.208 2.915 0.17 2.269c0.339 2.243 1.178 4.394 2.464 6.285l34.394 50.567 0.573 1.28c0.333 1.347-0.038 2.829-1.056 3.846l-26.109 26.109-1.161 0.813c-1.264 0.592-2.774 0.502-3.974-0.317l-50.586-34.384-1.555-0.928c-1.069-0.553-2.202-0.976-3.366-1.264l-3.085-0.435-2.135 0.016c-2.122 0.166-4.192 0.777-6.077 1.801-9.699 5.271-19.669 9.443-29.786 12.445-1.618 0.48-3.14 1.223-4.505 2.199l-2.202 1.904-1.484 1.725c-1.347 1.827-2.274 3.939-2.702 6.189l-11.406 59.968-0.368 1.075c-0.679 1.331-2.070 2.224-3.627 2.224h-36.904l-1.123-0.16c-1.432-0.413-2.557-1.597-2.837-3.094l-11.492-60.25-0.638-2.327c-1.629-4.502-5.312-8.026-9.994-9.408-10.218-3.017-20.259-7.203-30-12.493-1.883-1.021-3.953-1.632-6.074-1.798l-2.538 0.010-2.679 0.409c-1.75 0.429-3.418 1.171-4.922 2.192l-50.566 34.368-1.287 0.586c-1.347 0.342-2.81-0.029-3.824-1.046l-26.128-26.128-0.832-1.165c-0.602-1.251-0.511-2.723 0.303-3.923l34.459-50.649 1.385-2.474 0.894-2.653c0.43-1.811 0.525-3.696 0.272-5.558l-0.267-1.069-1.509-4.409-3.754-7.351c-3.541-7.389-6.441-14.882-8.666-22.426l-0.825-2.169-1.138-2.007-1.428-1.812-1.514-1.418-0.957-0.805c-1.825-1.346-3.936-2.274-6.183-2.702l-59.97-11.431-1.086-0.366c-1.34-0.673-2.218-2.045-2.218-3.603v-36.904l0.158-1.138c0.412-1.446 1.595-2.564 3.128-2.854l59.987-11.435 2.227-0.603c1.448-0.512 2.814-1.243 4.050-2.17l1.908-1.666 1.628-1.923c0.974-1.365 1.718-2.887 2.198-4.506 2.998-10.109 7.17-20.084 12.451-29.825l1.054-2.427 0.457-1.696 0.249-1.764 0.053-1.741-0.17-2.269c-0.338-2.244-1.177-4.393-2.463-6.285l-34.395-50.566-0.578-1.287c-0.338-1.348 0.035-2.816 1.067-3.845l26.128-26.127 1.154-0.808c1.26-0.585 2.771-0.496 3.965 0.317l50.578 34.378 1.748 1.025c1.207 0.603 2.49 1.045 3.819 1.311l3.034 0.331 2.864-0.219c1.653-0.276 3.255-0.826 4.739-1.63 9.676-5.246 19.654-9.41 29.808-12.428 2.424-0.721 4.631-2.035 6.42-3.823l1.4-1.558 1.379-2.043c0.805-1.43 1.375-2.986 1.685-4.609l11.431-59.97 0.362-1.074c0.67-1.328 2.045-2.206 3.607-2.206zM256.005 177.417c-43.403 0-78.575 35.172-78.575 78.574s35.172 78.574 78.575 78.574c43.403 0 78.574-35.171 78.574-78.574s-35.171-78.574-78.574-78.574zM207.846 255.992c0-26.605 21.554-48.159 48.159-48.159s48.159 21.554 48.159 48.159c0 26.605-21.554 48.158-48.159 48.158s-48.159-21.554-48.159-48.159z"></path>
</svg>
