<!-- Generated by IcoMoon.io -->
<svg version="1.1" xmlns="http://www.w3.org/2000/svg" width="512" height="512" viewBox="0 0 512 512">
<title></title>
<g id="icomoon-ignore">
</g>
<path d="M16.191 187.528l155.888-22.518 69.776-140.279c5.786-11.642 22.505-11.642 28.291 0l69.748 140.279 155.916 22.518c12.075 1.743 17.382 15.611 10.423 24.821l-1.68 1.896-112.865 109.2 26.668 154.21c2.074 11.995-9.686 21.321-20.7 17.463l-2.188-0.95-139.47-72.803-139.467 72.803c-10.85 5.661-23.416-2.56-23.123-14.153l0.234-2.358 26.641-154.21-112.838-109.2c-8.739-8.458-4.821-22.774 6.261-26.163l2.482-0.553z"></path>
</svg>
