<!-- Generated by IcoMoon.io -->
<svg version="1.1" xmlns="http://www.w3.org/2000/svg" width="512" height="512" viewBox="0 0 512 512">
<title></title>
<g id="icomoon-ignore">
</g>
<path d="M27.817 190.847l148.331-21.427 66.393-133.477c5.506-11.078 21.414-11.078 26.921 0l66.366 133.477 148.356 21.427c11.49 1.658 16.538 14.855 9.918 23.618l-1.601 1.804-107.389 103.904 25.375 146.733c1.971 11.414-9.217 20.288-19.696 16.616l-2.084-0.904-132.705-69.27-132.707 69.27c-10.323 5.389-22.28-2.433-22.001-13.464l0.223-2.247 25.35-146.733-107.367-103.904c-8.315-8.048-4.587-21.67 5.956-24.895l2.361-0.525zM312.384 189.659l-56.384-113.436-56.386 113.436c-2.186 4.399-6.412 7.447-11.302 8.153l-126.090 18.184 91.242 88.309c2.948 2.853 4.56 6.755 4.533 10.774l-0.216 2.418-21.535 124.663 112.768-58.846c3.645-1.903 7.879-2.221 11.72-0.952l2.249 0.952 112.744 58.846-21.51-124.663c-0.696-4.030 0.309-8.127 2.71-11.361l1.608-1.831 91.217-88.309-126.065-18.184c-4.074-0.588-7.688-2.803-10.046-6.071l-1.257-2.082z"></path>
</svg>
