<!-- Generated by IcoMoon.io -->
<svg version="1.1" xmlns="http://www.w3.org/2000/svg" width="512" height="512" viewBox="0 0 512 512">
<title></title>
<g id="icomoon-ignore">
    <line stroke-width="1" x1="16" y1="0" x2="16" y2="512" stroke="#449FDB" opacity="0.3"></line>
    <line stroke-width="1" x1="32" y1="0" x2="32" y2="512" stroke="#449FDB" opacity="1"></line>
    <line stroke-width="1" x1="48" y1="0" x2="48" y2="512" stroke="#449FDB" opacity="0.3"></line>
    <line stroke-width="1" x1="64" y1="0" x2="64" y2="512" stroke="#449FDB" opacity="1"></line>
    <line stroke-width="1" x1="80" y1="0" x2="80" y2="512" stroke="#449FDB" opacity="0.3"></line>
    <line stroke-width="1" x1="96" y1="0" x2="96" y2="512" stroke="#449FDB" opacity="1"></line>
    <line stroke-width="1" x1="112" y1="0" x2="112" y2="512" stroke="#449FDB" opacity="0.3"></line>
    <line stroke-width="1" x1="128" y1="0" x2="128" y2="512" stroke="#449FDB" opacity="1"></line>
    <line stroke-width="1" x1="144" y1="0" x2="144" y2="512" stroke="#449FDB" opacity="0.3"></line>
    <line stroke-width="1" x1="160" y1="0" x2="160" y2="512" stroke="#449FDB" opacity="1"></line>
    <line stroke-width="1" x1="176" y1="0" x2="176" y2="512" stroke="#449FDB" opacity="0.3"></line>
    <line stroke-width="1" x1="192" y1="0" x2="192" y2="512" stroke="#449FDB" opacity="1"></line>
    <line stroke-width="1" x1="208" y1="0" x2="208" y2="512" stroke="#449FDB" opacity="0.3"></line>
    <line stroke-width="1" x1="224" y1="0" x2="224" y2="512" stroke="#449FDB" opacity="1"></line>
    <line stroke-width="1" x1="240" y1="0" x2="240" y2="512" stroke="#449FDB" opacity="0.3"></line>
    <line stroke-width="1" x1="256" y1="0" x2="256" y2="512" stroke="#449FDB" opacity="1"></line>
    <line stroke-width="1" x1="272" y1="0" x2="272" y2="512" stroke="#449FDB" opacity="0.3"></line>
    <line stroke-width="1" x1="288" y1="0" x2="288" y2="512" stroke="#449FDB" opacity="1"></line>
    <line stroke-width="1" x1="304" y1="0" x2="304" y2="512" stroke="#449FDB" opacity="0.3"></line>
    <line stroke-width="1" x1="320" y1="0" x2="320" y2="512" stroke="#449FDB" opacity="1"></line>
    <line stroke-width="1" x1="336" y1="0" x2="336" y2="512" stroke="#449FDB" opacity="0.3"></line>
    <line stroke-width="1" x1="352" y1="0" x2="352" y2="512" stroke="#449FDB" opacity="1"></line>
    <line stroke-width="1" x1="368" y1="0" x2="368" y2="512" stroke="#449FDB" opacity="0.3"></line>
    <line stroke-width="1" x1="384" y1="0" x2="384" y2="512" stroke="#449FDB" opacity="1"></line>
    <line stroke-width="1" x1="400" y1="0" x2="400" y2="512" stroke="#449FDB" opacity="0.3"></line>
    <line stroke-width="1" x1="416" y1="0" x2="416" y2="512" stroke="#449FDB" opacity="1"></line>
    <line stroke-width="1" x1="432" y1="0" x2="432" y2="512" stroke="#449FDB" opacity="0.3"></line>
    <line stroke-width="1" x1="448" y1="0" x2="448" y2="512" stroke="#449FDB" opacity="1"></line>
    <line stroke-width="1" x1="464" y1="0" x2="464" y2="512" stroke="#449FDB" opacity="0.3"></line>
    <line stroke-width="1" x1="480" y1="0" x2="480" y2="512" stroke="#449FDB" opacity="1"></line>
    <line stroke-width="1" x1="496" y1="0" x2="496" y2="512" stroke="#449FDB" opacity="0.3"></line>
    <line stroke-width="1" x1="0" y1="16" x2="512" y2="16" stroke="#449FDB" opacity="0.3"></line>
    <line stroke-width="1" x1="0" y1="32" x2="512" y2="32" stroke="#449FDB" opacity="1"></line>
    <line stroke-width="1" x1="0" y1="48" x2="512" y2="48" stroke="#449FDB" opacity="0.3"></line>
    <line stroke-width="1" x1="0" y1="64" x2="512" y2="64" stroke="#449FDB" opacity="1"></line>
    <line stroke-width="1" x1="0" y1="80" x2="512" y2="80" stroke="#449FDB" opacity="0.3"></line>
    <line stroke-width="1" x1="0" y1="96" x2="512" y2="96" stroke="#449FDB" opacity="1"></line>
    <line stroke-width="1" x1="0" y1="112" x2="512" y2="112" stroke="#449FDB" opacity="0.3"></line>
    <line stroke-width="1" x1="0" y1="128" x2="512" y2="128" stroke="#449FDB" opacity="1"></line>
    <line stroke-width="1" x1="0" y1="144" x2="512" y2="144" stroke="#449FDB" opacity="0.3"></line>
    <line stroke-width="1" x1="0" y1="160" x2="512" y2="160" stroke="#449FDB" opacity="1"></line>
    <line stroke-width="1" x1="0" y1="176" x2="512" y2="176" stroke="#449FDB" opacity="0.3"></line>
    <line stroke-width="1" x1="0" y1="192" x2="512" y2="192" stroke="#449FDB" opacity="1"></line>
    <line stroke-width="1" x1="0" y1="208" x2="512" y2="208" stroke="#449FDB" opacity="0.3"></line>
    <line stroke-width="1" x1="0" y1="224" x2="512" y2="224" stroke="#449FDB" opacity="1"></line>
    <line stroke-width="1" x1="0" y1="240" x2="512" y2="240" stroke="#449FDB" opacity="0.3"></line>
    <line stroke-width="1" x1="0" y1="256" x2="512" y2="256" stroke="#449FDB" opacity="1"></line>
    <line stroke-width="1" x1="0" y1="272" x2="512" y2="272" stroke="#449FDB" opacity="0.3"></line>
    <line stroke-width="1" x1="0" y1="288" x2="512" y2="288" stroke="#449FDB" opacity="1"></line>
    <line stroke-width="1" x1="0" y1="304" x2="512" y2="304" stroke="#449FDB" opacity="0.3"></line>
    <line stroke-width="1" x1="0" y1="320" x2="512" y2="320" stroke="#449FDB" opacity="1"></line>
    <line stroke-width="1" x1="0" y1="336" x2="512" y2="336" stroke="#449FDB" opacity="0.3"></line>
    <line stroke-width="1" x1="0" y1="352" x2="512" y2="352" stroke="#449FDB" opacity="1"></line>
    <line stroke-width="1" x1="0" y1="368" x2="512" y2="368" stroke="#449FDB" opacity="0.3"></line>
    <line stroke-width="1" x1="0" y1="384" x2="512" y2="384" stroke="#449FDB" opacity="1"></line>
    <line stroke-width="1" x1="0" y1="400" x2="512" y2="400" stroke="#449FDB" opacity="0.3"></line>
    <line stroke-width="1" x1="0" y1="416" x2="512" y2="416" stroke="#449FDB" opacity="1"></line>
    <line stroke-width="1" x1="0" y1="432" x2="512" y2="432" stroke="#449FDB" opacity="0.3"></line>
    <line stroke-width="1" x1="0" y1="448" x2="512" y2="448" stroke="#449FDB" opacity="1"></line>
    <line stroke-width="1" x1="0" y1="464" x2="512" y2="464" stroke="#449FDB" opacity="0.3"></line>
    <line stroke-width="1" x1="0" y1="480" x2="512" y2="480" stroke="#449FDB" opacity="1"></line>
    <line stroke-width="1" x1="0" y1="496" x2="512" y2="496" stroke="#449FDB" opacity="0.3"></line>
</g>
<path d="M504.241 285.574c0-22.301-0.969-42.343-2.909-60.121-3.556-31.030-12.364-60.039-26.424-87.030-14.062-26.99-31.758-50.101-53.091-69.334s-46.223-34.343-74.666-45.334c-28.444-10.99-58.343-16.485-89.696-16.485-43.638 0-83.88 10.343-120.728 31.031s-66.586 49.212-89.212 85.576c-22.626 36.363-35.071 76.687-37.334 120.969-0.646 15.839-1.131 27.96-1.454 36.365v7.274c0 0.968-0.081 1.94-0.242 2.908l-0.485 2.911-0.242 2.908v104.243c0 11.313 4.040 21.010 12.121 29.091s17.778 12.12 29.091 12.12h41.697c11.636 0 21.414-4.040 29.334-12.12s11.878-17.777 11.878-29.091v-104.243c0-7.433-1.778-14.302-5.334-20.606s-8.485-11.312-14.788-15.029-13.334-5.576-21.091-5.576h-41.697c-2.909 0-5.657 0.322-8.242 0.969v-3.637l0.242-2.909 0.242-2.423v-1.214c1.94-39.111 12.767-74.584 32.485-106.423s45.737-56.808 78.061-74.909c32.323-18.101 67.555-27.151 105.697-27.151 55.596 0 103.433 18.020 143.515 54.061 40.080 36.041 63.192 81.535 69.332 136.485 0.322 2.262 0.647 5.98 0.969 11.153 0.322 5.171 0.647 10.828 0.969 16.969-3.232-0.647-6.304-0.969-9.212-0.969h-41.213c-11.637 0-21.414 4.040-29.333 12.12-7.919 8.082-11.88 17.779-11.88 29.091v103.759c0 7.433 1.94 14.382 5.818 20.848s9.213 11.475 16.001 15.029l-99.879 39.274v-2.425c0-2.908-0.647-5.575-1.94-8-1.293-2.423-3.151-4.282-5.576-5.576-2.423-1.293-5.091-1.94-8-1.94h-46.546c-4.202 0-7.839 1.455-10.909 4.365s-4.607 6.627-4.607 11.151v15.515c0 4.203 1.536 7.84 4.607 10.911s6.707 4.605 10.909 4.605h47.029l27.637-0.484 160-62.544 1.94-0.971 1.697-1.212 1.697-1.696c7.111-3.233 12.848-8.163 17.211-14.789 4.365-6.627 6.546-13.979 6.546-22.060v-103.759c0-2.262-0.322-4.685-0.969-7.272 0.647-1.616 0.969-3.070 0.969-4.365zM48.968 287.030h41.697c1.616 0 2.99 0.242 4.121 0.728 1.131 0.484 2.181 1.212 3.151 2.182s1.697 2.101 2.181 3.393c0.485 1.294 0.728 2.587 0.728 3.879v104.243c0 2.587-0.969 4.929-2.909 7.030s-4.364 3.151-7.272 3.151h-41.697c-2.909 0-5.334-1.050-7.273-3.151s-2.909-4.443-2.909-7.030v-104.243c0-1.293 0.242-2.585 0.727-3.879 0.484-1.293 1.212-2.423 2.181-3.393s2.101-1.697 3.394-2.182c1.293-0.486 2.586-0.728 3.879-0.728zM411.634 297.211c0-0.968 0.163-2.020 0.486-3.151s0.808-2.101 1.454-2.909c0.647-0.808 1.375-1.534 2.183-2.182s1.696-1.131 2.667-1.455c0.968-0.322 2.101-0.484 3.393-0.484h41.213c1.94 0 3.635 0.484 5.091 1.455 1.454 0.968 2.667 2.182 3.635 3.635 0.971 1.455 1.455 3.151 1.455 5.091v103.759c0 1.615-0.484 3.232-1.455 4.847-0.968 1.616-2.182 2.911-3.635 3.879-1.455 0.971-3.151 1.455-5.091 1.455h-41.213c-2.909 0-5.332-1.050-7.272-3.151s-2.911-4.445-2.911-7.030v-103.759z"></path>
<path d="M254.655 283.166c0 11.834-2.196 22.305-6.583 31.416-4.389 9.111-10.641 16.139-18.75 21.084-8.055 4.889-17.251 7.332-27.584 7.332s-19.5-2.361-27.499-7.082c-8.001-4.779-14.25-11.584-18.75-20.416-4.445-8.834-6.778-18.974-7-30.418v-6.833c0-11.889 2.167-22.362 6.5-31.416 4.389-9.112 10.639-16.139 18.75-21.084 8.167-4.945 17.445-7.416 27.834-7.416 10.277 0 19.444 2.444 27.5 7.333 8.055 4.889 14.305 11.862 18.749 20.917 4.501 8.999 6.779 19.334 6.834 31v5.584zM224.905 278.081c0-12.055-2.028-21.193-6.083-27.417-4-6.278-9.75-9.416-17.25-9.416-14.667 0-22.417 11-23.25 33.001l-0.084 8.916c0 11.889 1.972 21.027 5.916 27.417 3.946 6.389 9.805 9.582 17.583 9.582 7.39 0 13.084-3.139 17.084-9.416s6.028-15.305 6.083-27.083v-5.584z"></path>
<path d="M363.313 341.333h-29.083l-43-75.5v75.5h-29.25v-121.333h29.25l42.916 75.5v-75.5h29.167v121.333z"></path>
</svg>
