<!-- Generated by IcoMoon.io -->
<svg version="1.1" xmlns="http://www.w3.org/2000/svg" width="512" height="512" viewBox="0 0 512 512">
<title></title>
<g id="icomoon-ignore">
</g>
<path d="M219.725 64c86.003 0 155.722 69.719 155.722 155.722 0 38.513-13.982 73.76-37.145 100.945l109.698 109.715-17.617 17.617-109.715-109.698c-27.183 23.163-62.43 37.144-100.943 37.144-86.005 0-155.724-69.719-155.724-155.722s69.719-155.722 155.724-155.722zM219.708 88.915c-72.243 0-130.807 58.564-130.807 130.807s58.565 130.808 130.807 130.808c72.243 0 130.807-58.565 130.807-130.808s-58.565-130.807-130.808-130.807zM282.014 230.106v-20.764h-124.579v20.764h124.579z"></path>
</svg>
