<!-- Generated by IcoMoon.io -->
<svg version="1.1" xmlns="http://www.w3.org/2000/svg" width="512" height="512" viewBox="0 0 512 512">
<title></title>
<g id="icomoon-ignore">
</g>
<path d="M437.333 128c0-35.346-28.653-64-64-64-35.345 0-64 28.654-64 64 0 6.391 0.937 12.563 2.682 18.386l-124.083 68.758c-11.739-14.141-29.451-23.144-49.264-23.144-35.346 0-64 28.653-64 64s28.654 64 64 64c19.834 0 37.561-9.022 49.3-23.187l124.059 68.757c-1.752 5.837-2.695 12.024-2.695 18.43 0 35.347 28.655 64 64 64 35.347 0 64-28.653 64-64s-28.653-64-64-64c-19.763 0-37.433 8.958-49.173 23.036l-124.128-68.8c1.715-5.779 2.636-11.899 2.636-18.236 0-6.351-0.925-12.487-2.648-18.279l124.104-68.8c11.74 14.102 29.427 23.079 49.209 23.079 35.347 0 64-28.654 64-64zM334.933 384c0-21.207 17.192-38.4 38.4-38.4 21.209 0 38.4 17.192 38.4 38.4s-17.19 38.4-38.4 38.4c-21.207 0-38.4-17.192-38.4-38.4zM138.651 217.6c21.208 0 38.4 17.192 38.4 38.4s-17.192 38.4-38.4 38.4c-21.208 0-38.4-17.192-38.4-38.4s17.192-38.4 38.4-38.4zM334.933 128c0-21.207 17.192-38.4 38.4-38.4 21.209 0 38.4 17.192 38.4 38.4s-17.19 38.4-38.4 38.4c-21.207 0-38.4-17.192-38.4-38.4z"></path>
</svg>
