<!-- Generated by IcoMoon.io -->
<svg version="1.1" xmlns="http://www.w3.org/2000/svg" width="512" height="512" viewBox="0 0 512 512">
<title></title>
<g id="icomoon-ignore">
</g>
<path d="M220.813 18.901c111.512 0 201.912 90.399 201.912 201.912 0 48.484-17.089 92.977-45.572 127.785l115.946 115.944-28.557 28.557-115.944-115.946c-34.807 28.483-79.3 45.572-127.784 45.572-111.513 0-201.912-90.399-201.912-201.912s90.399-201.912 201.912-201.912zM220.787 59.283c-89.21 0-161.53 72.319-161.53 161.529s72.319 161.529 161.53 161.529c89.21 0 161.53-72.319 161.53-161.53s-72.32-161.53-161.53-161.53z"></path>
</svg>
