<!-- Generated by IcoMoon.io -->
<svg version="1.1" xmlns="http://www.w3.org/2000/svg" width="512" height="512" viewBox="0 0 512 512">
<title></title>
<g id="icomoon-ignore">
</g>
<path d="M506.509 218.825c0 117.82-95.51 213.334-213.331 213.334-51.227 0-98.238-18.055-135.013-48.151l-122.503 122.502-30.17-30.169 122.503-122.501c-30.094-36.776-48.15-83.786-48.15-135.013 0-117.82 95.513-213.333 213.333-213.333s213.331 95.513 213.331 213.333zM463.842 218.798c0-94.257-76.409-170.667-170.664-170.667s-170.667 76.41-170.667 170.667c0 94.256 76.41 170.666 170.667 170.666s170.664-76.41 170.664-170.666z"></path>
</svg>
