<svg width="65" height="65" viewBox="0 0 65 65" fill="none" xmlns="http://www.w3.org/2000/svg">
<path fill-rule="evenodd" clip-rule="evenodd" d="M57.5821 7.41789C57.9726 7.80842 57.9726 8.44158 57.5821 8.83211L8.83211 57.5821C8.44158 57.9726 7.80842 57.9726 7.41789 57.5821C7.02737 57.1916 7.02737 56.5584 7.41789 56.1679L56.1679 7.41789C56.5584 7.02737 57.1916 7.02737 57.5821 7.41789Z" fill="black"/>
<path fill-rule="evenodd" clip-rule="evenodd" d="M13.5417 11.8333C12.3703 11.8333 11.2469 12.2987 10.4186 13.1269C9.59704 13.9485 9.13257 15.0604 9.12509 16.2215C9.56862 23.5602 11.9218 30.6487 15.9422 36.788L22.7116 30.0141C22.5078 29.6408 22.3117 29.2621 22.1232 28.8782C21.8941 28.4116 22.0607 27.8474 22.5063 27.58L28.5469 23.9557L23.698 11.8333H13.5417ZM9.0044 11.7127C10.2078 10.5094 11.8399 9.83333 13.5417 9.83333H24.375C24.7839 9.83333 25.1516 10.0823 25.3035 10.4619L30.7201 24.0036C30.9024 24.4593 30.727 24.98 30.3062 25.2325L24.3367 28.8141C24.4929 29.1071 24.6539 29.3964 24.8199 29.682C25.0477 30.0742 24.9831 30.5705 24.6625 30.8912L16.4996 39.0596C16.2903 39.269 15.9989 39.375 15.704 39.3488C15.409 39.3226 15.1408 39.1671 14.9716 38.9241C10.3258 32.2512 7.61129 24.4259 7.12678 16.3096C7.12559 16.2897 7.125 16.2699 7.125 16.25C7.125 14.5482 7.80104 12.9161 9.0044 11.7127ZM39.7675 34.6938C40.02 34.273 40.5407 34.0976 40.9964 34.2799L54.5381 39.6965C54.9177 39.8484 55.1667 40.2161 55.1667 40.625V51.4583C55.1667 53.1601 54.4906 54.7922 53.2873 55.9956C52.0839 57.199 50.4518 57.875 48.75 57.875C48.7301 57.875 48.7102 57.8744 48.6903 57.8732C37.8782 57.2262 27.6794 52.6345 20.0273 44.9688C19.6371 44.5779 19.6377 43.9447 20.0285 43.5546C20.4194 43.1644 21.0526 43.1649 21.4427 43.5558C28.7415 50.8676 38.4669 55.2502 48.7785 55.8749C49.9396 55.8674 51.0515 55.4029 51.8731 54.5814C52.7013 53.7531 53.1667 52.6297 53.1667 51.4583V41.302L41.0443 36.4531L37.42 42.4937C37.1522 42.94 36.5867 43.1063 36.1199 42.8759C33.1125 41.3915 30.3671 39.427 27.9916 37.0596C27.6004 36.6697 27.5993 36.0366 27.9892 35.6454C28.379 35.2542 29.0122 35.2531 29.4034 35.6429C31.4076 37.6403 33.6934 39.331 36.1866 40.6621L39.7675 34.6938Z" fill="black"/>
</svg>
