<svg width="60" height="60" viewBox="0 0 60 60" fill="none" xmlns="http://www.w3.org/2000/svg">
<path fill-rule="evenodd" clip-rule="evenodd" d="M12.5 11C11.4391 11 10.4217 11.4214 9.67157 12.1716C8.92823 12.9149 8.50767 13.9207 8.5001 14.9711C9.08497 24.4674 13.1211 33.4227 19.8492 40.1508C26.5773 46.8789 35.5326 50.915 45.0288 51.4999C46.0793 51.4923 47.0851 51.0718 47.8284 50.3284C48.5786 49.5783 49 48.5609 49 47.5V38.177L37.9193 33.7448L34.6075 39.2645C34.3397 39.7108 33.7744 39.8771 33.3077 39.6469C27.6814 36.8721 23.1279 32.3186 20.3531 26.6923C20.1229 26.2256 20.2892 25.6603 20.7355 25.3925L26.2552 22.0807L21.823 11H12.5ZM12.5 9C10.9087 9 9.38258 9.63214 8.25736 10.7574C7.13214 11.8826 6.5 13.4087 6.5 15C6.5 15.0202 6.50061 15.0405 6.50184 15.0607C7.10928 25.0563 11.3539 34.484 18.435 41.565C25.516 48.6461 34.9437 52.8907 44.9393 53.4982C44.9595 53.4994 44.9798 53.5 45 53.5C46.5913 53.5 48.1174 52.8679 49.2426 51.7426C50.3679 50.6174 51 49.0913 51 47.5V37.5C51 37.0911 50.751 36.7234 50.3714 36.5715L37.8714 31.5715C37.4157 31.3892 36.895 31.5646 36.6425 31.9855L33.3746 37.4321C28.7895 34.9695 25.0305 31.2105 22.5679 26.6254L28.0145 23.3575C28.4354 23.105 28.6108 22.5843 28.4285 22.1286L23.4285 9.62861C23.2766 9.24895 22.9089 9 22.5 9H12.5Z" fill="black"/>
<path fill-rule="evenodd" clip-rule="evenodd" d="M36.5 17.5C36.5 16.9477 36.9477 16.5 37.5 16.5C39.0913 16.5 40.6174 17.1321 41.7426 18.2574C42.8679 19.3826 43.5 20.9087 43.5 22.5C43.5 23.0523 43.0523 23.5 42.5 23.5C41.9477 23.5 41.5 23.0523 41.5 22.5C41.5 21.4391 41.0786 20.4217 40.3284 19.6716C39.5783 18.9214 38.5609 18.5 37.5 18.5C36.9477 18.5 36.5 18.0523 36.5 17.5Z" fill="black"/>
<path fill-rule="evenodd" clip-rule="evenodd" d="M36.5 7.5C36.5 6.94772 36.9477 6.5 37.5 6.5C41.7435 6.5 45.8131 8.18571 48.8137 11.1863C51.8143 14.1869 53.5 18.2565 53.5 22.5C53.5 23.0523 53.0523 23.5 52.5 23.5C51.9477 23.5 51.5 23.0523 51.5 22.5C51.5 18.787 50.025 15.226 47.3995 12.6005C44.774 9.975 41.213 8.5 37.5 8.5C36.9477 8.5 36.5 8.05228 36.5 7.5Z" fill="black"/>
</svg>
