<svg width="65" height="65" viewBox="0 0 65 65" fill="none" xmlns="http://www.w3.org/2000/svg">
<path fill-rule="evenodd" clip-rule="evenodd" d="M13.5417 11.8333C12.3703 11.8333 11.2469 12.2987 10.4186 13.1269C9.59716 13.9484 9.1327 15.0601 9.12509 16.221C9.75932 26.53 14.1405 36.2518 21.4444 43.5557C28.7482 50.8595 38.47 55.2407 48.779 55.8749C49.9399 55.8673 51.0516 55.4028 51.8731 54.5814C52.7013 53.7531 53.1667 52.6297 53.1667 51.4583V41.302L41.0443 36.4531L37.42 42.4937C37.1522 42.9399 36.5869 43.1062 36.1202 42.876C30.0415 39.8782 25.1218 34.9585 22.124 28.8798C21.8938 28.4131 22.0601 27.8478 22.5063 27.58L28.5469 23.9557L23.698 11.8333H13.5417ZM9.0044 11.7127C10.2078 10.5094 11.8399 9.83333 13.5417 9.83333H24.375C24.7839 9.83333 25.1516 10.0823 25.3035 10.4619L30.7201 24.0036C30.9024 24.4593 30.727 24.98 30.3062 25.2325L24.3377 28.8136C27.025 33.8503 31.1497 37.975 36.1864 40.6623L39.7675 34.6938C40.02 34.273 40.5407 34.0976 40.9964 34.2799L54.5381 39.6965C54.9177 39.8484 55.1667 40.2161 55.1667 40.625V51.4583C55.1667 53.1601 54.4906 54.7922 53.2873 55.9956C52.0839 57.199 50.4518 57.875 48.75 57.875C48.7298 57.875 48.7095 57.8744 48.6893 57.8732C37.8811 57.2163 27.6869 52.6266 20.0301 44.9699C12.3734 37.3132 7.78367 27.1189 7.12684 16.3107C7.12561 16.2905 7.125 16.2702 7.125 16.25C7.125 14.5482 7.80104 12.9161 9.0044 11.7127Z" fill="black"/>
<path fill-rule="evenodd" clip-rule="evenodd" d="M54.1667 7.125C54.719 7.125 55.1667 7.57272 55.1667 8.125V18.9583C55.1667 19.5106 54.719 19.9583 54.1667 19.9583C53.6144 19.9583 53.1667 19.5106 53.1667 18.9583V8.125C53.1667 7.57272 53.6144 7.125 54.1667 7.125Z" fill="black"/>
<path fill-rule="evenodd" clip-rule="evenodd" d="M43.3333 7.125C43.8856 7.125 44.3333 7.57272 44.3333 8.125V18.9583C44.3333 19.5106 43.8856 19.9583 43.3333 19.9583C42.781 19.9583 42.3333 19.5106 42.3333 18.9583V8.125C42.3333 7.57272 42.781 7.125 43.3333 7.125Z" fill="black"/>
</svg>
