<svg width="60" height="60" viewBox="0 0 60 60" fill="none" xmlns="http://www.w3.org/2000/svg">
<path fill-rule="evenodd" clip-rule="evenodd" d="M12.5 11C11.4391 11 10.4217 11.4214 9.67157 12.1716C8.92823 12.9149 8.50767 13.9207 8.5001 14.9711C9.08497 24.4674 13.1211 33.4227 19.8492 40.1508C26.5773 46.8789 35.5326 50.915 45.0288 51.4999C46.0793 51.4923 47.0851 51.0718 47.8284 50.3284C48.5786 49.5783 49 48.5609 49 47.5V38.177L37.9193 33.7448L34.6075 39.2645C34.3397 39.7108 33.7744 39.8771 33.3077 39.6469C27.6814 36.8721 23.1279 32.3186 20.3531 26.6923C20.1229 26.2256 20.2892 25.6603 20.7355 25.3925L26.2552 22.0807L21.823 11H12.5ZM8.25736 10.7574C9.38258 9.63214 10.9087 9 12.5 9H22.5C22.9089 9 23.2766 9.24895 23.4285 9.62861L28.4285 22.1286C28.6108 22.5843 28.4354 23.105 28.0145 23.3575L22.5679 26.6254C25.0305 31.2105 28.7895 34.9695 33.3746 37.4321L36.6425 31.9855C36.895 31.5646 37.4157 31.3892 37.8714 31.5715L50.3714 36.5715C50.751 36.7234 51 37.0911 51 37.5V47.5C51 49.0913 50.3679 50.6174 49.2426 51.7426C48.1174 52.8679 46.5913 53.5 45 53.5C44.9798 53.5 44.9595 53.4994 44.9393 53.4982C34.9437 52.8907 25.516 48.6461 18.435 41.565C11.3539 34.484 7.10928 25.0563 6.50184 15.0607C6.50061 15.0405 6.5 15.0202 6.5 15C6.5 13.4087 7.13214 11.8826 8.25736 10.7574Z" fill="black"/>
</svg>
