<!-- Generated by IcoMoon.io -->
<svg version="1.1" xmlns="http://www.w3.org/2000/svg" width="512" height="512" viewBox="0 0 512 512">
<title></title>
<g id="icomoon-ignore">
    <line stroke-width="1" x1="16" y1="0" x2="16" y2="512" stroke="#449FDB" opacity="0.3"></line>
    <line stroke-width="1" x1="32" y1="0" x2="32" y2="512" stroke="#449FDB" opacity="1"></line>
    <line stroke-width="1" x1="48" y1="0" x2="48" y2="512" stroke="#449FDB" opacity="0.3"></line>
    <line stroke-width="1" x1="64" y1="0" x2="64" y2="512" stroke="#449FDB" opacity="1"></line>
    <line stroke-width="1" x1="80" y1="0" x2="80" y2="512" stroke="#449FDB" opacity="0.3"></line>
    <line stroke-width="1" x1="96" y1="0" x2="96" y2="512" stroke="#449FDB" opacity="1"></line>
    <line stroke-width="1" x1="112" y1="0" x2="112" y2="512" stroke="#449FDB" opacity="0.3"></line>
    <line stroke-width="1" x1="128" y1="0" x2="128" y2="512" stroke="#449FDB" opacity="1"></line>
    <line stroke-width="1" x1="144" y1="0" x2="144" y2="512" stroke="#449FDB" opacity="0.3"></line>
    <line stroke-width="1" x1="160" y1="0" x2="160" y2="512" stroke="#449FDB" opacity="1"></line>
    <line stroke-width="1" x1="176" y1="0" x2="176" y2="512" stroke="#449FDB" opacity="0.3"></line>
    <line stroke-width="1" x1="192" y1="0" x2="192" y2="512" stroke="#449FDB" opacity="1"></line>
    <line stroke-width="1" x1="208" y1="0" x2="208" y2="512" stroke="#449FDB" opacity="0.3"></line>
    <line stroke-width="1" x1="224" y1="0" x2="224" y2="512" stroke="#449FDB" opacity="1"></line>
    <line stroke-width="1" x1="240" y1="0" x2="240" y2="512" stroke="#449FDB" opacity="0.3"></line>
    <line stroke-width="1" x1="256" y1="0" x2="256" y2="512" stroke="#449FDB" opacity="1"></line>
    <line stroke-width="1" x1="272" y1="0" x2="272" y2="512" stroke="#449FDB" opacity="0.3"></line>
    <line stroke-width="1" x1="288" y1="0" x2="288" y2="512" stroke="#449FDB" opacity="1"></line>
    <line stroke-width="1" x1="304" y1="0" x2="304" y2="512" stroke="#449FDB" opacity="0.3"></line>
    <line stroke-width="1" x1="320" y1="0" x2="320" y2="512" stroke="#449FDB" opacity="1"></line>
    <line stroke-width="1" x1="336" y1="0" x2="336" y2="512" stroke="#449FDB" opacity="0.3"></line>
    <line stroke-width="1" x1="352" y1="0" x2="352" y2="512" stroke="#449FDB" opacity="1"></line>
    <line stroke-width="1" x1="368" y1="0" x2="368" y2="512" stroke="#449FDB" opacity="0.3"></line>
    <line stroke-width="1" x1="384" y1="0" x2="384" y2="512" stroke="#449FDB" opacity="1"></line>
    <line stroke-width="1" x1="400" y1="0" x2="400" y2="512" stroke="#449FDB" opacity="0.3"></line>
    <line stroke-width="1" x1="416" y1="0" x2="416" y2="512" stroke="#449FDB" opacity="1"></line>
    <line stroke-width="1" x1="432" y1="0" x2="432" y2="512" stroke="#449FDB" opacity="0.3"></line>
    <line stroke-width="1" x1="448" y1="0" x2="448" y2="512" stroke="#449FDB" opacity="1"></line>
    <line stroke-width="1" x1="464" y1="0" x2="464" y2="512" stroke="#449FDB" opacity="0.3"></line>
    <line stroke-width="1" x1="480" y1="0" x2="480" y2="512" stroke="#449FDB" opacity="1"></line>
    <line stroke-width="1" x1="496" y1="0" x2="496" y2="512" stroke="#449FDB" opacity="0.3"></line>
    <line stroke-width="1" x1="0" y1="16" x2="512" y2="16" stroke="#449FDB" opacity="0.3"></line>
    <line stroke-width="1" x1="0" y1="32" x2="512" y2="32" stroke="#449FDB" opacity="1"></line>
    <line stroke-width="1" x1="0" y1="48" x2="512" y2="48" stroke="#449FDB" opacity="0.3"></line>
    <line stroke-width="1" x1="0" y1="64" x2="512" y2="64" stroke="#449FDB" opacity="1"></line>
    <line stroke-width="1" x1="0" y1="80" x2="512" y2="80" stroke="#449FDB" opacity="0.3"></line>
    <line stroke-width="1" x1="0" y1="96" x2="512" y2="96" stroke="#449FDB" opacity="1"></line>
    <line stroke-width="1" x1="0" y1="112" x2="512" y2="112" stroke="#449FDB" opacity="0.3"></line>
    <line stroke-width="1" x1="0" y1="128" x2="512" y2="128" stroke="#449FDB" opacity="1"></line>
    <line stroke-width="1" x1="0" y1="144" x2="512" y2="144" stroke="#449FDB" opacity="0.3"></line>
    <line stroke-width="1" x1="0" y1="160" x2="512" y2="160" stroke="#449FDB" opacity="1"></line>
    <line stroke-width="1" x1="0" y1="176" x2="512" y2="176" stroke="#449FDB" opacity="0.3"></line>
    <line stroke-width="1" x1="0" y1="192" x2="512" y2="192" stroke="#449FDB" opacity="1"></line>
    <line stroke-width="1" x1="0" y1="208" x2="512" y2="208" stroke="#449FDB" opacity="0.3"></line>
    <line stroke-width="1" x1="0" y1="224" x2="512" y2="224" stroke="#449FDB" opacity="1"></line>
    <line stroke-width="1" x1="0" y1="240" x2="512" y2="240" stroke="#449FDB" opacity="0.3"></line>
    <line stroke-width="1" x1="0" y1="256" x2="512" y2="256" stroke="#449FDB" opacity="1"></line>
    <line stroke-width="1" x1="0" y1="272" x2="512" y2="272" stroke="#449FDB" opacity="0.3"></line>
    <line stroke-width="1" x1="0" y1="288" x2="512" y2="288" stroke="#449FDB" opacity="1"></line>
    <line stroke-width="1" x1="0" y1="304" x2="512" y2="304" stroke="#449FDB" opacity="0.3"></line>
    <line stroke-width="1" x1="0" y1="320" x2="512" y2="320" stroke="#449FDB" opacity="1"></line>
    <line stroke-width="1" x1="0" y1="336" x2="512" y2="336" stroke="#449FDB" opacity="0.3"></line>
    <line stroke-width="1" x1="0" y1="352" x2="512" y2="352" stroke="#449FDB" opacity="1"></line>
    <line stroke-width="1" x1="0" y1="368" x2="512" y2="368" stroke="#449FDB" opacity="0.3"></line>
    <line stroke-width="1" x1="0" y1="384" x2="512" y2="384" stroke="#449FDB" opacity="1"></line>
    <line stroke-width="1" x1="0" y1="400" x2="512" y2="400" stroke="#449FDB" opacity="0.3"></line>
    <line stroke-width="1" x1="0" y1="416" x2="512" y2="416" stroke="#449FDB" opacity="1"></line>
    <line stroke-width="1" x1="0" y1="432" x2="512" y2="432" stroke="#449FDB" opacity="0.3"></line>
    <line stroke-width="1" x1="0" y1="448" x2="512" y2="448" stroke="#449FDB" opacity="1"></line>
    <line stroke-width="1" x1="0" y1="464" x2="512" y2="464" stroke="#449FDB" opacity="0.3"></line>
    <line stroke-width="1" x1="0" y1="480" x2="512" y2="480" stroke="#449FDB" opacity="1"></line>
    <line stroke-width="1" x1="0" y1="496" x2="512" y2="496" stroke="#449FDB" opacity="0.3"></line>
</g>
<path d="M181.595 70.24c23.59-9.771 48.873-14.8 74.405-14.8s50.815 5.029 74.404 14.8c23.59 9.771 45.023 24.093 63.077 42.147s32.375 39.488 42.147 63.077c9.771 23.59 14.8 48.873 14.8 74.404v79.951c0 16.226-6.445 31.786-17.918 43.26-9.709 9.709-22.346 15.817-35.834 17.466-1.649 13.489-7.757 26.125-17.466 35.834-11.473 11.473-27.034 17.918-43.26 17.918h-66.625v-15.754h66.625c12.048 0 23.601-4.786 32.12-13.305 6.889-6.889 11.337-15.764 12.786-25.278-6.013-1.507-11.563-4.62-16.020-9.077-6.475-6.476-10.113-15.257-10.113-24.414v-106.601c0-9.157 3.637-17.939 10.113-24.415s15.257-10.113 24.414-10.113c16.226 0 31.786 6.446 43.26 17.918 0.521 0.522 1.032 1.051 1.532 1.589-1.546-18.318-5.911-36.317-12.969-53.356-8.979-21.678-22.14-41.375-38.731-57.966s-36.289-29.752-57.966-38.732-44.912-13.601-68.376-13.601c-23.464 0-46.697 4.621-68.376 13.601s-41.375 22.141-57.966 38.732c-16.591 16.591-29.752 36.288-38.731 57.966-7.058 17.038-11.423 35.038-12.969 53.356 0.5-0.538 1.010-1.067 1.532-1.589 11.472-11.472 27.034-17.918 43.26-17.918 9.157 0 17.939 3.637 24.415 10.113s10.113 15.257 10.113 24.415v106.601c0 9.157-3.637 17.939-10.113 24.414s-15.257 10.113-24.415 10.113c-16.225 0-31.787-6.445-43.26-17.918s-17.919-27.034-17.919-43.26v-79.951c0-25.532 5.029-50.815 14.8-74.405s24.093-45.023 42.147-63.077c18.054-18.055 39.488-32.376 63.077-42.147zM77.326 329.82c0 12.047 4.786 23.601 13.304 32.12 8.519 8.518 20.073 13.304 32.12 13.304 4.979 0 9.754-1.978 13.274-5.499 3.521-3.52 5.499-8.295 5.499-13.274v-106.601c0-4.979-1.978-9.754-5.499-13.274s-8.295-5.499-13.274-5.499c-12.047 0-23.601 4.786-32.12 13.304-8.518 8.519-13.304 20.073-13.304 32.12v53.3zM434.675 276.52c0-12.047-4.786-23.601-13.304-32.12-8.519-8.518-20.073-13.304-32.12-13.304-4.979 0-9.754 1.978-13.275 5.499s-5.498 8.295-5.498 13.274v106.601c0 4.979 1.978 9.754 5.498 13.274 3.521 3.521 8.296 5.499 13.275 5.499 12.047 0 23.601-4.786 32.12-13.304 8.518-8.519 13.304-20.073 13.304-32.12v-53.3z"></path>
<path d="M249.594 436.377c0-11.116 9.094-20.086 20.211-19.931l22.193 0.31h6.748c10.991 0 19.902 8.911 19.902 19.902v0c0 11.058-9.015 19.997-20.073 19.902l-29.219-0.25c-10.942-0.094-19.762-8.99-19.762-19.933v0z"></path>
<path d="M250.321 287.155c0 8.738-1.621 16.471-4.862 23.2-3.242 6.728-7.857 11.918-13.846 15.57-5.948 3.61-12.738 5.414-20.369 5.414s-14.4-1.743-20.308-5.231c-5.907-3.528-10.523-8.555-13.846-15.077-3.282-6.523-5.005-14.010-5.169-22.461v-5.046c0-8.779 1.601-16.512 4.8-23.2 3.242-6.727 7.857-11.918 13.846-15.569 6.031-3.651 12.882-5.477 20.554-5.477 7.589 0 14.359 1.804 20.308 5.415s10.565 8.759 13.846 15.446c3.323 6.646 5.006 14.277 5.047 22.892v4.123zM228.351 283.401c0-8.902-1.498-15.651-4.492-20.246-2.954-4.635-7.201-6.954-12.738-6.954-10.831 0-16.554 8.123-17.169 24.369l-0.061 6.585c0 8.779 1.457 15.528 4.369 20.246s7.242 7.077 12.984 7.077c5.457 0 9.662-2.317 12.615-6.954s4.451-11.303 4.492-20v-4.123z"></path>
<path d="M336.289 330.109h-21.476l-31.754-55.753v55.754h-21.6v-89.6h21.6l31.693 55.754v-55.754h21.538v89.6z"></path>
</svg>
