<!-- Generated by IcoMoon.io -->
<svg version="1.1" xmlns="http://www.w3.org/2000/svg" width="512" height="512" viewBox="0 0 512 512">
<title></title>
<g id="icomoon-ignore">
</g>
<path d="M170.667 209.066c-21.208 0-38.4-17.192-38.4-38.4s17.192-38.4 38.4-38.4c21.208 0 38.4 17.192 38.4 38.4s-17.192 38.4-38.4 38.4zM341.334 209.066c-21.207 0-38.4-17.192-38.4-38.4s17.192-38.4 38.4-38.4c21.207 0 38.4 17.192 38.4 38.4s-17.192 38.4-38.4 38.4zM170.667 234.667c35.346 0 64-28.654 64-64s-28.654-64-64-64c-35.346 0-64 28.654-64 64s28.654 64 64 64zM341.334 234.667c35.345 0 64-28.654 64-64s-28.655-64-64-64c-35.347 0-64 28.654-64 64s28.653 64 64 64z"></path>
<path d="M29.866 362.666c0-54.197 43.936-98.133 98.133-98.133h85.334c54.197 0 98.133 43.936 98.133 98.134v42.666h-25.6v-42.666c0-40.060-32.474-72.534-72.534-72.534h-85.334c-40.059 0-72.534 32.474-72.534 72.534v42.666h-25.6v-42.666zM384 290.134h-74.666v-25.6h74.666c54.197 0 98.134 43.936 98.134 98.134v42.666h-25.6v-42.666c0-40.060-32.474-72.534-72.534-72.534z"></path>
</svg>
