<svg width="65" height="65" viewBox="0 0 65 65" fill="none" xmlns="http://www.w3.org/2000/svg">
<path fill-rule="evenodd" clip-rule="evenodd" d="M13.5417 11.8333C12.3703 11.8333 11.2469 12.2987 10.4186 13.1269C9.59716 13.9484 9.1327 15.0601 9.12509 16.221C9.75932 26.53 14.1405 36.2518 21.4444 43.5557C28.7482 50.8595 38.47 55.2407 48.779 55.8749C49.9399 55.8673 51.0516 55.4028 51.8731 54.5814C52.7013 53.7531 53.1667 52.6297 53.1667 51.4583V41.302L41.0443 36.4531L37.42 42.4937C37.1522 42.9399 36.5869 43.1062 36.1202 42.876C30.0415 39.8782 25.1218 34.9585 22.124 28.8798C21.8938 28.4131 22.0601 27.8478 22.5063 27.58L28.5469 23.9557L23.698 11.8333H13.5417ZM13.5417 9.83333C11.8399 9.83333 10.2078 10.5094 9.0044 11.7127C7.80104 12.9161 7.125 14.5482 7.125 16.25C7.125 16.2702 7.12561 16.2905 7.12684 16.3107C7.78367 27.1189 12.3734 37.3132 20.0301 44.9699C27.6868 52.6266 37.8811 57.2163 48.6893 57.8732C48.7095 57.8744 48.7298 57.875 48.75 57.875C50.4518 57.875 52.0839 57.199 53.2873 55.9956C54.4906 54.7922 55.1667 53.1601 55.1667 51.4583V40.625C55.1667 40.2161 54.9177 39.8484 54.5381 39.6965L40.9964 34.2799C40.5407 34.0976 40.02 34.273 39.7675 34.6938L36.1864 40.6623C31.1497 37.975 27.025 33.8503 24.3377 28.8136L30.3062 25.2325C30.727 24.98 30.9024 24.4593 30.7201 24.0036L25.3035 10.4619C25.1516 10.0823 24.7839 9.83333 24.375 9.83333H13.5417Z" fill="black"/>
<path fill-rule="evenodd" clip-rule="evenodd" d="M42.6262 10.1262C43.0167 9.7357 43.6499 9.7357 44.0404 10.1262L48.75 14.8358L53.4595 10.1262C53.8501 9.7357 54.4832 9.7357 54.8737 10.1262C55.2643 10.5168 55.2643 11.1499 54.8737 11.5404L50.1642 16.25L54.8737 20.9596C55.2643 21.3501 55.2643 21.9833 54.8737 22.3738C54.4832 22.7643 53.8501 22.7643 53.4595 22.3738L48.75 17.6642L44.0404 22.3738C43.6499 22.7643 43.0167 22.7643 42.6262 22.3738C42.2357 21.9833 42.2357 21.3501 42.6262 20.9596L47.3358 16.25L42.6262 11.5404C42.2357 11.1499 42.2357 10.5168 42.6262 10.1262Z" fill="black"/>
</svg>
