<!-- Generated by IcoMoon.io -->
<svg version="1.1" xmlns="http://www.w3.org/2000/svg" width="512" height="512" viewBox="0 0 512 512">
<title></title>
<g id="icomoon-ignore">
</g>
<path d="M511.808 474.872l0.192-3.954v-123.245h-35.722v123.245l-0.209 1.558c-0.557 1.988-2.143 3.553-4.159 4.102l-1.583 0.209-430.232-0.209c-2.016-0.55-3.603-2.115-4.158-4.102l-0.213-1.558v-123.245h-35.721v123.245l0.191 3.954c1.893 19.531 17.658 35.072 37.47 36.94l4.014 0.188 432.664-0.188c19.813-1.868 35.577-17.409 37.468-36.94zM392.209 184.065l25.255-24.899-161.465-159.166-161.466 159.166 25.258 24.899 118.376-116.663-0.030 309.618h35.721l0.029-309.618 118.319 116.663z"></path>
</svg>
