<!-- Generated by IcoMoon.io -->
<svg version="1.1" xmlns="http://www.w3.org/2000/svg" width="512" height="512" viewBox="0 0 512 512">
<title></title>
<g id="icomoon-ignore">
</g>
<path d="M256 32.001c46.93 0 85.637 35.918 91.164 82.282l-27.163 0.022c-5.3-31.172-31.938-54.877-64.001-54.877-34.595 0-62.874 27.595-64.85 62.391l-0.11 3.895-0.023 57.144h213.186c10.93 0 19.798 10.108 19.798 22.574v251.995c0 12.466-8.865 22.575-19.798 22.575h-296.405c-10.933 0-19.799-10.109-19.799-22.575v-251.994c0-12.465 8.865-22.574 19.799-22.574h56.339l0.023-57.144c0-51.757 41.118-93.714 91.84-93.714zM114.88 210.286v242.286h282.24v-242.286h-282.24zM284 328.801c0-15.465-12.534-28-28-28s-28 12.534-28 28c0 15.465 12.535 28 28 28s28-12.534 28-28z"></path>
</svg>
