<!-- Generated by IcoMoon.io -->
<svg version="1.1" xmlns="http://www.w3.org/2000/svg" width="512" height="512" viewBox="0 0 512 512">
<title></title>
<g id="icomoon-ignore">
</g>
<path d="M256 425.481c-93.99 0-170.667-76.010-170.667-169.946v-60.561c0-9.269 7.421-16.685 16.695-16.685s16.695 7.416 16.695 16.685v60.561c0 75.394 61.835 137.192 137.275 137.192s137.275-61.798 137.275-137.192v-60.561c0-9.269 7.42-16.685 16.695-16.685s16.695 7.416 16.695 16.685v60.561c-0.618 93.935-76.677 169.946-170.667 169.946z"></path>
<path d="M256.005 0c-61.218 0-110.686 49.438-110.686 110.619v144.299c0 61.18 49.469 110.62 110.686 110.62s110.687-49.44 110.687-110.62v-144.299c-0.618-61.181-50.089-110.619-110.687-110.619z"></path>
<path d="M256.002 512c-9.275 0-16.696-7.416-16.696-16.685v-86.519c0-9.269 7.42-16.685 16.696-16.685s16.695 7.416 16.695 16.685v85.901c-0.618 9.888-8.039 17.303-16.695 17.303z"></path>
<path d="M309.812 512h-108.213c-9.275 0-16.696-7.416-16.696-16.685 0-9.272 7.42-16.687 16.696-16.687h107.594c9.276 0 16.695 7.416 16.695 16.687 0.618 9.269-6.801 16.685-16.077 16.685z"></path>
</svg>
